<?xml version="1.0" standalone="yes"?>
<svg xmlns="http://www.w3.org/2000/svg" width="931" height="1536">
<path style="fill:#010101; stroke:none;" d="M0 0L0 1536L931 1536L931 0L0 0z"/>
<path style="fill:#686c76; stroke:none;" d="M318 68L318 69L322 69L318 68z"/>
<path style="fill:#868b93; stroke:none;" d="M322 68L323 69L322 68z"/>
<path style="fill:#b6bcc7; stroke:none;" d="M323 68L323 69L328 69L323 68z"/>
<path style="fill:#e3e8ec; stroke:none;" d="M274 84L274 85L277 84C259 101.238 243.197 122.884 238.46 148C235.402 164.215 237 181.559 237 198L238 198C238 163.909 237.381 132.808 262 106L247 135L245 144C247.078 150.267 245.159 158.368 245.241 164.996C245.459 182.644 245.245 200.381 244.95 217.999C244.825 225.465 241.807 238.691 246 245L246 246L243 256L245 295L243 294L245 307L243 306C244.748 311.693 244.046 320.403 242 326C245.642 326 244.054 342.774 244.333 346.333C245.651 363.128 244 380.744 244 398C244 402.938 245.862 412.853 242 416L242 417L242 425L242 426L242 431L242 432L244 446L243 446L243 444L242 444C244.32 453.87 246.104 466.315 242 476C245.921 476 243.112 483.514 242 486C245.421 485.316 244.049 487.512 242 487L244 489L244 490L242 492L244 491L244 492L242 496L243 496L243 494L244 494L242 498L242 501L244 501L242 503L242 504L244 508L243 508L243 505L242 505L244 516L243 516L243 514L242 514L244 525L243 525L243 523L242 523L244 529L242 528L242 529L242 535L244 534L242 541L242 552L243 552L243 550L244 550L242 559L243 559L243 557L244 557L244 562L243 562L243 560L242 560L244 581C240.617 581.548 243.178 585.643 244 588L243 588L243 586L242 586L244 596L243 596L243 593L242 593L244 620L243 620L243 616L242 616L242 645L244 654C241.653 658.511 240.989 663.701 244 668C240.59 670.758 241.921 679.811 242.042 683.982C242.474 698.957 242 714.006 242 729C242 732.548 240.265 745.378 244 746C239.55 754.552 241.809 768.434 242.08 777.911C242.187 781.651 241.005 786.383 244 789L244 790L242 801L242.074 829.94L244 842C240.776 848.196 242.318 855.501 242.117 862.286C241.615 879.168 242 896.111 242 913C242 918.527 239.656 931.204 244 935L244 936C241.966 937.768 241.966 939.231 244 941L244 942C240.029 945.47 240.08 969.493 244 973L244 974C240.411 977.139 240.399 995.854 244 999L244 1000C238.74 1004.6 242.658 1019.98 244 1026L243 1026L243 1024L242 1024L242 1042L244 1041L242 1048L243 1048L243 1046L244 1046L242 1056L243 1056L243 1054L244 1054L244 1061L243 1061L243 1057L242 1057L244 1074L243 1074L243 1070L242 1070L242 1076L244 1075L244 1080L243 1080L243 1077L242 1077L244 1087C241.659 1090.15 242.536 1092.52 244 1096L242 1095L244 1097L244 1098L244 1104L242 1110L243 1110L243 1107L244 1107L242 1112L242 1113L242 1118C245.567 1118 242.283 1121.52 242 1124L243 1124L243 1122L244 1122L242 1128L243 1128L243 1126L244 1126L244 1131L242 1130L244 1135L242 1140L244 1144L242 1143L242 1147L243 1147L243 1145L244 1145C244 1152.45 246.595 1165.93 242 1172L242 1173L244 1174L244 1175L242 1195L242 1196L244 1212L243 1212L243 1210L242 1210L242 1214L244 1213C244 1219.88 246.189 1232.47 242 1238L242 1239C245.996 1244.27 244 1254.58 244 1261C244 1279.61 247.939 1303.04 243 1321L245 1320L245 1321C241.869 1333.32 245.886 1357.76 255 1367L255 1368L253 1368L253 1370L257 1372L255 1372L259 1374C258.596 1384.35 273.628 1394.83 282 1399L281 1397L282 1397C286.809 1404.49 296.864 1406.98 305 1409.29C327.448 1415.67 351.653 1411.87 374.669 1412.8C435.27 1415.24 497.129 1414.76 557.714 1413.62C587.075 1413.06 619.86 1409.94 649 1414L649 1415L594.028 1415.06L575 1414L574 1414C570.584 1416.56 563.484 1415.28 559.294 1415.28C546.596 1415.3 527.849 1418.64 516 1414L501.588 1415.27L463 1416L464 1414C456.514 1416.68 447.579 1415.2 439.72 1415.31C422.487 1415.54 405.258 1415.5 388.039 1415.34C338.022 1414.9 284.399 1423.3 252.356 1375C247.113 1367.1 243.204 1358.19 240.895 1349C236.406 1331.13 238 1312.28 238 1294L237 1294C237 1329.8 236.493 1357.66 257 1385C266.849 1398.13 280.815 1405.51 294 1411C297.901 1412.63 307.565 1414.74 307 1417L314 1416L314 1419L315 1419C314.29 1415.45 321.673 1416.31 321 1419L323 1420L324 1420L323 1417L325 1420L326 1420L331 1420L331 1418L332 1418L332 1420L333 1420L333 1418L334 1418L334 1420L335 1420L335 1418L336 1418L336 1420L337 1420L337 1418L338 1418L338 1420L339 1420L339 1418L340 1418L340 1420L341 1420L341 1418L342 1418L342 1420L343 1420L343 1418L344 1418L344 1420L345 1420L345 1418L346 1418L346 1420L347 1420L347 1418L348 1418L348 1420L349 1420L349 1418L350 1418L350 1420L351 1420L351 1418L352 1418C353.718 1420.96 364.265 1422.61 365 1418L366 1418L366 1421L367 1421L367 1418L368 1418L368 1421L369 1421L369 1418L370 1418L370 1421L371 1421L373 1419L372 1421L373 1421C377.901 1419.88 393.781 1423.45 395 1418L396 1418L396 1421L402 1421L401 1419L402 1419C404.579 1421.48 413.496 1422.16 414 1418L415 1418L415 1421L416 1421L417 1419L417 1421L418 1421L418 1419L419 1419C419.672 1422.36 431.624 1420.88 432 1419L433 1419L433 1421L434 1421L436 1419L435 1421L436 1421C438.806 1419.6 439.58 1419.68 439 1422L449 1419L449 1422C453.964 1420.07 458.05 1419.93 463 1422C462.316 1418.58 464.512 1419.95 464 1422L468 1419L469 1419L473 1422L474 1419L485 1422L488 1422C488 1418.15 493.408 1420.05 495 1422L496 1422C497.645 1419.26 500.712 1419.15 500 1422L503 1422C502.292 1418.46 507.627 1419.49 507 1422L510 1420L514 1422C513.316 1418.58 515.512 1419.95 515 1422L518 1422L517 1420L518 1420L521 1422L522 1419C532.25 1425.16 545.909 1419.36 557 1422L557 1423L507 1426L507 1427L587 1424L609 1427L811 1427L811 1426C738.166 1426 664.122 1428.89 592 1423L592 1422L600 1420L601 1420L602 1422L605 1422L606 1422L607 1420L615 1420L614 1422L621 1420L620 1422L621 1422L632 1420L633 1420C633.627 1423.14 642.479 1422.61 643 1420L644 1420C644.622 1423.11 653.501 1422.5 654 1420C659.304 1422.65 668.484 1422.58 669 1420L670 1420C670.576 1422.88 677.461 1422.7 678 1420L679 1420C679.667 1423.34 689.529 1422.35 690 1420L691 1420C692.539 1422.81 695.86 1421.89 698 1420C698.592 1422.96 702.492 1422.54 703 1420L704 1420C704.592 1422.96 708.492 1422.54 709 1420L710 1420C710.592 1422.96 714.492 1422.54 715 1420L716 1420L736 1423L753 1422L775 1421L792 1423L795 1423C795 1419.27 809.767 1421.06 813 1422C813 1418.63 822.158 1419.25 825 1420C825 1417.56 825.786 1418.39 828 1419C828 1416.15 829.686 1417.33 832 1418L845 1412L865 1400L864 1398L866 1401L871 1398L850 1414L850 1415C911.662 1388.39 901 1310.79 901 1257L901 1208L901 755L901 613C901 591.033 905.087 564.366 900 543L901 543L902 546L904 548C909.657 543.057 906 520.476 906 513L906 410C906 402.076 910.197 372.535 901 371L901 208C901 168.264 903.199 132.105 875.572 100.001C841.039 59.8729 783.187 68 736 68L416 68C371.519 68 313.069 58.234 274 84z"/>
<path style="fill:#b6bcc7; stroke:none;" d="M806.667 68.3334L807.333 68.6666L806.667 68.3334z"/>
<path style="fill:#686c76; stroke:none;" d="M808 68L808 69L812 69L808 68z"/>
<path style="fill:#868b93; stroke:none;" d="M311.667 69.3334L312.333 69.6666L311.667 69.3334z"/>
<path style="fill:#b6bcc7; stroke:none;" d="M313.667 69.3334L314.333 69.6666L313.667 69.3334M316 69L317 70L316 69M816 69L817 70L816 69z"/>
<path style="fill:#868b93; stroke:none;" d="M817.667 69.3334L818.333 69.6666L817.667 69.3334z"/>
<path style="fill:#686c76; stroke:none;" d="M305 70L306 71L305 70z"/>
<path style="fill:#868b93; stroke:none;" d="M306 70L307 71L306 70z"/>
<path style="fill:#b6bcc7; stroke:none;" d="M307 70L308 71L307 70M822 70L823 71L822 70z"/>
<path style="fill:#868b93; stroke:none;" d="M823 70L824 71L823 70z"/>
<path style="fill:#686c76; stroke:none;" d="M824 70L825 71L824 70M301 71L302 72L301 71z"/>
<path style="fill:#868b93; stroke:none;" d="M302 71L303 72L302 71z"/>
<path style="fill:#b6bcc7; stroke:none;" d="M303 71L304 72L303 71M827 71L828 72L827 71z"/>
<path style="fill:#686c76; stroke:none;" d="M828 71L829 72L828 71z"/>
<path style="fill:#868b93; stroke:none;" d="M298 72L299 73L298 72z"/>
<path style="fill:#b6bcc7; stroke:none;" d="M299 72L300 73L299 72z"/>
<path style="fill:#868b93; stroke:none;" d="M831 72L832 73L831 72z"/>
<path style="fill:#686c76; stroke:none;" d="M832 72L833 73L832 72M294 73L295 74L294 73z"/>
<path style="fill:#868b93; stroke:none;" d="M295 73L296 74L295 73z"/>
<path style="fill:#b6bcc7; stroke:none;" d="M296 73L297 74L296 73z"/>
<path style="fill:#868b93; stroke:none;" d="M834 73L835 74L834 73z"/>
<path style="fill:#686c76; stroke:none;" d="M835 73L836 74L835 73z"/>
<path style="fill:#868b93; stroke:none;" d="M292 74L293 75L292 74z"/>
<path style="fill:#b6bcc7; stroke:none;" d="M293 74L294 75L293 74z"/>
<path style="fill:#868b93; stroke:none;" d="M837 74L838 75L837 74z"/>
<path style="fill:#686c76; stroke:none;" d="M289 75L290 76L289 75z"/>
<path style="fill:#b6bcc7; stroke:none;" d="M290 75L291 76L290 75M839 75L840 76L839 75z"/>
<path style="fill:#686c76; stroke:none;" d="M840 75L841 76L840 75z"/>
<path style="fill:#868b93; stroke:none;" d="M287 76L288 77L287 76z"/>
<path style="fill:#b6bcc7; stroke:none;" d="M288 76L289 77L288 76z"/>
<path style="fill:#868b93; stroke:none;" d="M842 76L843 77L842 76M285 77L286 78L285 77z"/>
<path style="fill:#b6bcc7; stroke:none;" d="M844 77L845 78L844 77z"/>
<path style="fill:#868b93; stroke:none;" d="M283 78L284 79L283 78z"/>
<path style="fill:#b6bcc7; stroke:none;" d="M846 78L847 79L846 78z"/>
<path style="fill:#868b93; stroke:none;" d="M281 79L282 80L281 79z"/>
<path style="fill:#b6bcc7; stroke:none;" d="M848 79L849 80L848 79z"/>
<path style="fill:#868b93; stroke:none;" d="M279 80L280 81L279 80z"/>
<path style="fill:#b6bcc7; stroke:none;" d="M850 80L851 81L850 80z"/>
<path style="fill:#868b93; stroke:none;" d="M277 81L278 82L277 81z"/>
<path style="fill:#b6bcc7; stroke:none;" d="M281 81L282 82L281 81z"/>
<path style="fill:#686c76; stroke:none;" d="M852 81L853 82L852 81M275 82L276 83L275 82z"/>
<path style="fill:#b6bcc7; stroke:none;" d="M276 82L277 83L276 82M279 82L277 83L277 84L279 82z"/>
<path style="fill:#686c76; stroke:none;" d="M854 82L855 83L854 82z"/>
<path style="fill:#868b93; stroke:none;" d="M274 83L275 84L274 83z"/>
<path style="fill:#b6bcc7; stroke:none;" d="M855 83L856 84L855 83z"/>
<path style="fill:#686c76; stroke:none;" d="M272 84L273 85L272 84z"/>
<path style="fill:#b6bcc7; stroke:none;" d="M273 84L273 86L271 85L267 88L253 104L249 109C238.633 114.672 233.52 134.14 231.211 145C227.209 163.819 229 183.86 229 203C229 222.066 227.248 242.034 228.799 261C229.781 273.004 235.12 299.08 227 309L227 312C232.611 319.406 229.001 338.808 229 348C229 352.206 229.829 356.518 226 359L226 360L229 360L229 444L227 444L226.432 384L225 360L224 360L224 412L224 446C232.605 451.363 228.252 464.291 228.749 473C230.336 500.784 231.196 529.175 229 557C224.1 550.188 226 540.08 226 532C226 512.161 224.639 491.774 226 472L225 472C218.516 500.092 227.26 531.483 224 560L229 561L229 1183C229 1232.66 228.761 1282.34 229.001 1332C229.071 1346.53 234.086 1377.16 248 1385C248.978 1391.51 260.611 1403.82 267 1405L269 1409L271 1408L275 1411L275 1413L277 1412L278 1415L280 1416L282 1415L282 1417L284 1416L284 1418L286 1417L286 1419L288 1420L291 1419L300 1422L300 1424L304 1423L304 1425L308 1424L316 1425L315 1427C362.862 1427 412.454 1426 461 1426C472.202 1426 485.597 1427.6 496 1425C499.958 1424.01 505.618 1424.53 505 1427C521.315 1423.97 540.362 1421.82 557 1423L557 1422C546.899 1417.75 531.152 1425.86 522 1419L521 1422L517 1420L518 1422L515 1422C515.084 1419.97 513.916 1419.97 514 1422L510 1420L507 1422C506.585 1419.5 503.415 1419.5 503 1422L500 1422C499.568 1419.31 497.338 1420.16 496 1422L495 1422C493.382 1419.78 488.546 1418.73 488 1422L485 1422L474 1419L473 1422L469 1419L468 1419L464 1422C464.084 1419.97 462.916 1419.97 463 1422C458.393 1419.57 453.581 1419.45 449 1422L449 1419L447 1421L439 1422C439 1419.37 437.237 1420.21 435 1421L436 1419L433 1421L433 1419L432 1419L432 1421L419 1419L418 1419L418 1421L417 1421L417 1419L416 1419L416 1421L415 1421L415 1418L414 1418L414 1421L401 1419L402 1421L401 1421L396 1418L395 1418L395 1421L372 1421L373 1419L371 1421L370 1421L370 1418L369 1418L369 1421L368 1421L368 1418L367 1418L367 1421L366 1421L366 1418L365 1418L365 1421L351 1418L351 1420L350 1420L350 1418L349 1418L349 1420L348 1420L348 1418L347 1418L347 1420L346 1420L346 1418L345 1418L345 1420L344 1420L344 1418L343 1418L343 1420L342 1420L342 1418L341 1418L341 1420L340 1420L340 1418L339 1418L339 1420L338 1420L338 1418L337 1418L337 1420L336 1420L336 1418L335 1418L335 1420L334 1420L334 1418L333 1418L333 1420L332 1420L332 1418L331 1418L331 1420L330 1420C328.444 1418.19 327.556 1418.19 326 1420L325 1420L323 1417L324 1420L323 1420L321 1419C320.532 1416.19 315.468 1416.19 315 1419L314 1419L314 1416L307 1417C306.417 1413.31 295.532 1411.71 292 1410.15C278.852 1404.36 267.664 1395.86 258.259 1385C235.261 1358.44 237 1326.87 237 1294L238 1294C238 1312.59 236.33 1331.82 240.895 1350C243.107 1358.81 246.786 1367.36 251.698 1375C283.109 1423.86 338.782 1414.99 388.671 1415.68C405.941 1415.92 423.221 1415.67 440.503 1415.67C447.882 1415.67 457.273 1417.25 464 1414L463 1416L464 1416L499 1416L516 1414C526.961 1419.23 548.359 1416.31 560.576 1415.59C564.504 1415.36 571.216 1416.96 574 1414L575 1414L594.028 1415.22L649 1415L649 1414C639.511 1411.64 628.676 1413.5 618.95 1413.39C598.639 1413.18 578.321 1413.01 558.015 1413.28C502.396 1414.01 446.541 1413.44 390.91 1412.76C353.296 1412.3 313.863 1418.15 281 1397L282 1399L281 1399C274.233 1392.1 259.179 1384.91 259 1374L255 1372L257 1372L253 1370L255 1368L255 1367C246.224 1354.12 243.343 1335.13 245 1320L243 1321C245.861 1313.15 244.184 1304.58 243.884 1296.42C243.427 1284.01 244 1271.43 244 1259C244 1253.78 246.127 1242.61 242 1239L242 1238C246.5 1234.07 244 1218.88 244 1213L242 1214L242 1210L243 1210L243 1212L244 1212L242 1196L242 1195C245.399 1193.04 244.982 1174.66 242 1173L242 1172C246.874 1167.74 244 1151.32 244 1145L243 1145L243 1147L242 1147L242 1143L244 1144L242 1140L244 1135L242 1130L244 1131L244 1126L243 1126L243 1128L242 1128L244 1122L243 1122L243 1124L242 1124C242.739 1121.75 245.408 1117.98 242 1118L242 1113L242 1112L244 1107L243 1107L243 1110L242 1110L244 1104L244 1098L244 1097L242 1095L244 1096L244 1095L244 1087L242 1077L243 1077L243 1080L244 1080L244 1075L242 1076L242 1070L243 1070L243 1074L244 1074L242 1057L243 1057L243 1061L244 1061L244 1054L243 1054L243 1056L242 1056L244 1046L243 1046L243 1048L242 1048L244 1041L242 1042L242 1041L242 1024L243 1024L243 1026L244 1026C243.032 1018.68 239.141 1006.42 244 1000L244 999C240.575 994.414 240.575 978.586 244 974L244 973C240.291 967.357 239.895 947.419 244 942L244 941L244 936L244 935C239.764 929.409 242 917.828 242 911C242 894.71 241.361 878.265 242.269 862C242.661 854.961 241.426 848.718 244 842L242.167 830L242 801L244 790L244 789C241.49 785.671 242.396 782.025 242.196 778C241.691 767.813 240.318 755.609 244 746C240.331 746 242 732.518 242 729C242 713.606 242.634 698.219 242 683C241.856 679.545 241.207 669.536 244 668C241.282 663.114 242.08 659.012 244 654L242 645L242 616L243 616L243 620L244 620L242 593L243 593L243 596L244 596L242 586L243 586L243 588L244 588C244 585.153 239.53 579.883 244 581L242 560L243 560L243 562L244 562L244 557L243 557L243 559L242 559L244 550L243 550L243 552L242 552L242 541L244 534L242 535L242 528L244 529L242 523L243 523L243 525L244 525L242 514L243 514L243 516L244 516L242 505L243 505L243 508L244 508L242 504L242 503C243.714 502.049 244.353 500.919 242 501L242 498L244 494L243 494L243 496L242 496L244 491L242 492L244 490L244 489L242 487C244.034 487.083 244.034 485.917 242 486C243.366 483.585 245.855 476.623 242 476C246.344 467.86 245.033 452.492 242 444L243 444L243 446L244 446L242 432L242 431C244.034 429.232 244.034 427.768 242 426L242 425C244.629 423.105 244.591 418.885 242 417L242 416C245.965 413.105 244 402.66 244 398C244 380.867 246.313 362.539 244.491 345.606C244.058 341.58 246.038 326.669 242 326C244.588 321.027 245.076 311.174 243 306L245 307L245 306L243 294L245 295L245 294L243 256L246 246L246 245L244.947 219.907L245.579 171.17L245 144L248.199 134L262 106C234.692 126.947 238 167.81 238 198L237 198C237 181.594 235.285 164.137 238.665 148C242.059 131.799 250.423 117.875 258.99 104C263.716 96.3451 271.738 91.1503 277 84L273 84z"/>
<path style="fill:#686c76; stroke:none;" d="M857 84L858 85L857 84z"/>
<path style="fill:#e3e8ec; stroke:none;" d="M272 85L273 86L272 85z"/>
<path style="fill:#b6bcc7; stroke:none;" d="M858 85L859 86L858 85z"/>
<path style="fill:#686c76; stroke:none;" d="M269 86L270 87L269 86z"/>
<path style="fill:#e3e8ec; stroke:none;" d="M271 86L272 87L271 86z"/>
<path style="fill:#686c76; stroke:none;" d="M860 86L861 87L860 86z"/>
<path style="fill:#868b93; stroke:none;" d="M268 87L269 88L268 87z"/>
<path style="fill:#e3e8ec; stroke:none;" d="M269 87L270 88L269 87z"/>
<path style="fill:#868b93; stroke:none;" d="M861 87L862 88L861 87z"/>
<path style="fill:#e3e8ec; stroke:none;" d="M268 88L269 89L268 88z"/>
<path style="fill:#b6bcc7; stroke:none;" d="M862 88L863 89L862 88z"/>
<path style="fill:#686c76; stroke:none;" d="M265 89L266 90L265 89z"/>
<path style="fill:#e3e8ec; stroke:none;" d="M266.667 89.3334L267.333 89.6666L266.667 89.3334z"/>
<path style="fill:#686c76; stroke:none;" d="M864 89L865 90L864 89z"/>
<path style="fill:#868b93; stroke:none;" d="M264 90L263 92L264 90z"/>
<path style="fill:#e3e8ec; stroke:none;" d="M265 90L266 91L265 90z"/>
<path style="fill:#686c76; stroke:none;" d="M865 90L866 91L865 90z"/>
<path style="fill:#e3e8ec; stroke:none;" d="M264 91L265 92L264 91z"/>
<path style="fill:#868b93; stroke:none;" d="M866 91L867 92L866 91z"/>
<path style="fill:#e3e8ec; stroke:none;" d="M263 92L264 93L263 92z"/>
<path style="fill:#b6bcc7; stroke:none;" d="M867 92L868 93L867 92z"/>
<path style="fill:#e3e8ec; stroke:none;" d="M262 93L261 95L262 93z"/>
<path style="fill:#686c76; stroke:none;" d="M258 95L259 96L258 95M257 96L258 97L257 96M256 97L257 98L256 97M255 98L256 99L255 98z"/>
<path style="fill:#b6bcc7; stroke:none;" d="M268 99L262 106L268 99M876 101L877 102L876 101z"/>
<path style="fill:#e3e8ec; stroke:none;" d="M253 102L254 103L253 102z"/>
<path style="fill:#b6bcc7; stroke:none;" d="M877 102L878 103L877 102z"/>
<path style="fill:#868b93; stroke:none;" d="M251 103L252 104L251 103z"/>
<path style="fill:#e3e8ec; stroke:none;" d="M252 103L253 104L252 103z"/>
<path style="fill:#868b93; stroke:none;" d="M878 103L879 104L878 103z"/>
<path style="fill:#686c76; stroke:none;" d="M250 104L251 105L250 104z"/>
<path style="fill:#e3e8ec; stroke:none;" d="M251 104L252 105L251 104z"/>
<path style="fill:#010101; stroke:none;" d="M324 104.428C255.905 114.184 271 195.396 271 245L271 690L271 1183L271 1300C271 1324.03 269.305 1346.62 286.3 1365.99C303.069 1385.09 325.77 1385 349 1385L419 1385L682 1385L767 1385C780.846 1385 796.357 1386.95 810 1384.54C833.296 1380.42 851.699 1362.76 857.522 1340C860.756 1327.36 859 1312.97 859 1300L859 1227L859 725L859 289L859 185C859 163.8 860.434 143.287 845.699 126C824.531 101.165 795.545 104 766 104C757.561 104 743.914 101.392 736.109 104.742C728.979 107.803 731.768 119.034 730.239 125C727.503 135.68 719.289 144.953 709 148.931C699.75 152.508 688.751 151 679 151L624 151L493 151C472.152 151 448.551 154.107 428 150.674C414.847 148.477 403.619 136.806 400.681 124C399.399 118.416 401.866 109.751 396.721 105.742C392.14 102.172 382.48 104 377 104C359.751 104 341.076 101.982 324 104.428z"/>
<path style="fill:#686c76; stroke:none;" d="M879 104L880 105L879 104M249 105L250 106L249 105z"/>
<path style="fill:#b6bcc7; stroke:none;" d="M881 107L882 108L881 107z"/>
<path style="fill:#868b93; stroke:none;" d="M247 108L248 109L247 108z"/>
<path style="fill:#e3e8ec; stroke:none;" d="M248 108L249 109L248 108z"/>
<path style="fill:#686c76; stroke:none;" d="M882 108L883 109L882 108M246 109L247 110L246 109z"/>
<path style="fill:#b6bcc7; stroke:none;" d="M883 110L884 111L883 110z"/>
<path style="fill:#868b93; stroke:none;" d="M245 111L246 112L245 111M884 111L885 112L884 111z"/>
<path style="fill:#686c76; stroke:none;" d="M244 112L245 113L244 112z"/>
<path style="fill:#b6bcc7; stroke:none;" d="M521 114C521.31 122.682 521.858 122.038 531 123L527 119L528 122L526 118L525 118L525 122L522 121C523.152 116.617 524.26 114.71 529 115L521 114M530 113L532 116L535 116L536 116C539.871 114.068 542.697 116.842 546 119L542 113L530 113M543 113L545 116L548 114L547 117L548 117L549 114L559 119L555 113L543 113M556 113L558 116L561 114L560 117L561 117L562 114L572 119L568 113L556 113M569 113L571 116L574 114L573 117L574 117L575 114L585 119L581 113L569 113M582 113L584 116C589.633 113.622 593.219 115.876 598 119L594 113L582 113M595 113L597 116L600 114L599 117L600 117L601 114L609 119L605 116L608 121L602 116L603 122L599 120L600 122L599 122L592 116L597 122L592 119L593 122L590 121L590 116L589 116L590 122L586 120L587 122L586 122L579 116L584 122L580 119L576 120L577 122L576 122L573 120L574 122L573 122L566 116L571 122L567 119L563 120L564 122L563 122L560 120L561 122L560 122L553 116L558 122L554 119L550 120L551 122L550 122L547 120L548 122L547 122L540 116L545 122L541 119L537 120L538 122L537 122L534 120L535 122L534 122L527 116C532.747 124.059 539.685 122.747 548.626 122.747L589.13 122.747C593.909 122.747 607.075 125.008 609.633 119.609C613.264 111.943 598.633 113.328 595 113M885 113L886 114L885 113z"/>
<path style="fill:#868b93; stroke:none;" d="M243 114L244 115L243 114M886 114L887 115L886 114z"/>
<path style="fill:#686c76; stroke:none;" d="M242 115L243 116L242 115z"/>
<path style="fill:#b6bcc7; stroke:none;" d="M524 116L525 117L524 116M530 116L533 119L530 116M537 116L538 117L537 116M550 116L551 119L552 119L550 116M563 116L564 117L563 116M576 116L577 119L578 119L576 116M586 116L587 117L586 116M887 116L888 117L887 116z"/>
<path style="fill:#686c76; stroke:none;" d="M241 117L242 118L241 117M888 117L889 118L888 117z"/>
<path style="fill:#e3e8ec; stroke:none;" d="M521 118L522 119L521 118z"/>
<path style="fill:#b6bcc7; stroke:none;" d="M535 118L536 119L535 118M538 118L539 119L538 118M548 118L549 119L548 118M561 118L562 119L561 118M564 118L565 119L564 118M574 118L575 119L574 118M587 118L588 119L587 118M600 118L601 119L600 118M888 118L889 119L888 118z"/>
<path style="fill:#686c76; stroke:none;" d="M240 119L241 120L240 119z"/>
<path style="fill:#e3e8ec; stroke:none;" d="M603 119L606 122L603 119z"/>
<path style="fill:#686c76; stroke:none;" d="M889 119L890 120L889 119z"/>
<path style="fill:#868b93; stroke:none;" d="M239 121L240 122L239 121z"/>
<path style="fill:#e3e8ec; stroke:none;" d="M540 121L541 122L540 121M553 121L554 122L553 121M566 121L567 122L566 121M579 121L580 122L579 121z"/>
<path style="fill:#686c76; stroke:none;" d="M890 121L891 122L890 121z"/>
<path style="fill:#868b93; stroke:none;" d="M238 123L239 124L238 123z"/>
<path style="fill:#686c76; stroke:none;" d="M891 123L892 124L891 123M237 125L238 126L237 125M892 125L893 126L892 125M236 127L237 128L236 127M893 127L894 128L893 127z"/>
<path style="fill:#868b93; stroke:none;" d="M236 128L237 129L236 128z"/>
<path style="fill:#b6bcc7; stroke:none;" d="M893 128L894 129L893 128z"/>
<path style="fill:#686c76; stroke:none;" d="M235 129L236 130L235 129z"/>
<path style="fill:#868b93; stroke:none;" d="M235 130L236 131L235 130M894 130L895 131L894 130z"/>
<path style="fill:#686c76; stroke:none;" d="M234 132L235 133L234 132M895 132L896 133L895 132z"/>
<path style="fill:#868b93; stroke:none;" d="M234 133L235 134L234 133z"/>
<path style="fill:#b6bcc7; stroke:none;" d="M895 133L896 134L895 133z"/>
<path style="fill:#686c76; stroke:none;" d="M233 135L234 136L233 135M896 135L897 136L896 135z"/>
<path style="fill:#868b93; stroke:none;" d="M233 136L234 137L233 136z"/>
<path style="fill:#b6bcc7; stroke:none;" d="M896 136L897 137L896 136z"/>
<path style="fill:#686c76; stroke:none;" d="M232.333 138.667L232.667 139.333L232.333 138.667M897 138L898 139L897 138z"/>
<path style="fill:#868b93; stroke:none;" d="M897 139L898 140L897 139z"/>
<path style="fill:#b6bcc7; stroke:none;" d="M247.333 140.667L247.667 141.333L247.333 140.667z"/>
<path style="fill:#686c76; stroke:none;" d="M231.333 141.667L231.667 142.333L231.333 141.667M898 142L899 143L898 142z"/>
<path style="fill:#868b93; stroke:none;" d="M231 143L232 144L231 143z"/>
<path style="fill:#b6bcc7; stroke:none;" d="M898 143L899 144L898 143z"/>
<path style="fill:#686c76; stroke:none;" d="M230.333 146.667L230.667 147.333L230.333 146.667M899 146L900 147L899 146z"/>
<path style="fill:#868b93; stroke:none;" d="M899 147L900 148L899 147M230 148L231 149L230 148z"/>
<path style="fill:#b6bcc7; stroke:none;" d="M899 148L900 149L899 148z"/>
<path style="fill:#686c76; stroke:none;" d="M229 151L229 155L230 155L229 151M900 152L901 153L900 152z"/>
<path style="fill:#868b93; stroke:none;" d="M900 153L901 154L900 153z"/>
<path style="fill:#b6bcc7; stroke:none;" d="M900.333 154.667L900.667 155.333L900.333 154.667z"/>
<path style="fill:#868b93; stroke:none;" d="M229 155L230 156L229 155z"/>
<path style="fill:#686c76; stroke:none;" d="M228 159L228 260L229 260L229 190L228 159M901 161L901 165L902 165L901 161z"/>
<path style="fill:#868b93; stroke:none;" d="M901 165L901 172L902 172L901 165z"/>
<path style="fill:#b6bcc7; stroke:none;" d="M901 172L901 199L902 199L901 172z"/>
<path style="fill:#868b93; stroke:none;" d="M901.333 199.667L901.667 200.333L901.333 199.667z"/>
<path style="fill:#e3e8ec; stroke:none;" d="M237 200L237 204L238 204L237 200z"/>
<path style="fill:#b6bcc7; stroke:none;" d="M901 201L901 205L902 205L901 201z"/>
<path style="fill:#e3e8ec; stroke:none;" d="M237 205L236.398 918L236.671 1162L236.706 1248L236 1287L238 1270L238 1224L238 1036L238 446L238 276L238 227L237 205z"/>
<path style="fill:#868b93; stroke:none;" d="M901.333 205.667L901.667 206.333L901.333 205.667z"/>
<path style="fill:#b6bcc7; stroke:none;" d="M901 207L901 369L902 369L902 255C902 241.485 906.206 219.407 901 207z"/>
<path style="fill:#e3e8ec; stroke:none;" d="M243 250L244 251L243 250z"/>
<path style="fill:#b6bcc7; stroke:none;" d="M244 258L245 259L244 258z"/>
<path style="fill:#686c76; stroke:none;" d="M226 260L225 262L226 260z"/>
<path style="fill:#e3e8ec; stroke:none;" d="M227 260L226 298L228 311C227.597 299.717 230 286.066 230 274C230 269.19 231.03 263.167 227 260M243 261L244 262L243 261z"/>
<path style="fill:#868b93; stroke:none;" d="M225 262L225 310L226 310C226 296.474 230.209 274.414 225 262z"/>
<path style="fill:#b6bcc7; stroke:none;" d="M244 288L245 289L244 288M244 290L245 291L244 290M244 298L245 299L244 298M244 302L245 303L244 302z"/>
<path style="fill:#686c76; stroke:none;" d="M225 310L226 311L225 310M226 311L227 312L226 311M228 312L228 359L229 359C229 345.735 233.109 324.177 228 312z"/>
<path style="fill:#b6bcc7; stroke:none;" d="M244 314L245 315L244 314M244 316L245 317L244 316M244 318L245 319L244 318M244 320L245 321L244 320M244 324L245 325L244 324M244 342L245 343L244 342z"/>
<path style="fill:#868b93; stroke:none;" d="M225 359L226 360L225 359z"/>
<path style="fill:#e3e8ec; stroke:none;" d="M225 360C231.355 386.693 223.68 416.755 227 444L229 444C232.412 417.005 231.137 387.076 229 360L225 360z"/>
<path style="fill:#868b93; stroke:none;" d="M223 361L223 419L224 448L225 448C220.405 428.702 224 404.832 224 385C224 377.784 225.802 367.678 223 361z"/>
<path style="fill:#e3e8ec; stroke:none;" d="M224 361L225 362L224 361z"/>
<path style="fill:#b6bcc7; stroke:none;" d="M244 362L245 363L244 362z"/>
<path style="fill:#e3e8ec; stroke:none;" d="M242 367L243 368L242 367z"/>
<path style="fill:#868b93; stroke:none;" d="M901 369L902 370L901 369z"/>
<path style="fill:#686c76; stroke:none;" d="M901 370L902 371L901 370M903 370L904 371L903 370M905 371L906 372L905 371M906 372L907 373L906 372z"/>
<path style="fill:#b6bcc7; stroke:none;" d="M906 373L906 547L907 547L907 425L907 390L906 373z"/>
<path style="fill:#e3e8ec; stroke:none;" d="M242 386L243 387L242 386M242 388L243 389L242 388M242 394L243 395L242 394M242 406L242 409L243 409L242 406M242 419L243 420L242 419M242 435L242 439L243 439L242 435M224 440L224 444L225 444L224 440M224 446L225 447L224 446z"/>
<path style="fill:#b6bcc7; stroke:none;" d="M244 446L245 447L244 446z"/>
<path style="fill:#e3e8ec; stroke:none;" d="M225 447L225 448L228 448L225 447z"/>
<path style="fill:#686c76; stroke:none;" d="M225 448L226 449L225 448z"/>
<path style="fill:#868b93; stroke:none;" d="M226 448L227 449L226 448z"/>
<path style="fill:#686c76; stroke:none;" d="M227 448L228 472L229 472C229 465.15 231.242 453.6 227 448z"/>
<path style="fill:#868b93; stroke:none;" d="M228 448L229 449L228 448z"/>
<path style="fill:#e3e8ec; stroke:none;" d="M242 451L242 454L243 454L242 451M242 457L243 458L242 457M242 460L243 461L242 460M242 463L243 464L242 463M242.333 466.667L242.667 467.333L242.333 466.667M242 470L243 471L242 470z"/>
<path style="fill:#686c76; stroke:none;" d="M226 471L227 472L226 471M224 472L225 473L224 472z"/>
<path style="fill:#e3e8ec; stroke:none;" d="M225 473C229.383 491.412 226 514.082 226 533C226 540.072 223.637 551.748 229 557L230 502L228 472L225 473M242 472L243 473L242 472z"/>
<path style="fill:#686c76; stroke:none;" d="M223 473L224 474L223 473z"/>
<path style="fill:#868b93; stroke:none;" d="M223 474L223 559L224 559L224 500L223 474z"/>
<path style="fill:#e3e8ec; stroke:none;" d="M224 474L225 475L224 474M224 476L224 479L225 479L224 476M242 478L243 479L242 478z"/>
<path style="fill:#b6bcc7; stroke:none;" d="M243 509L243 512L244 512L243 509z"/>
<path style="fill:#e3e8ec; stroke:none;" d="M242 519L242 522L243 522L242 519z"/>
<path style="fill:#b6bcc7; stroke:none;" d="M243.333 530.667L243.667 531.333L243.333 530.667z"/>
<path style="fill:#e3e8ec; stroke:none;" d="M242 536L242 540L243 540L242 536z"/>
<path style="fill:#b6bcc7; stroke:none;" d="M900 543L901 549L905 549L905 546L904 545L902 546L900 543M243 544L243 549L244 549L243 544z"/>
<path style="fill:#686c76; stroke:none;" d="M901 549L902 550L901 549z"/>
<path style="fill:#868b93; stroke:none;" d="M901 550L902 551L901 550z"/>
<path style="fill:#b6bcc7; stroke:none;" d="M901 551L901 698L902 698L902 595C902 582.532 905.807 562.456 901 551z"/>
<path style="fill:#e3e8ec; stroke:none;" d="M224 553L224 556L225 556L224 553z"/>
<path style="fill:#b6bcc7; stroke:none;" d="M243 554L244 555L243 554z"/>
<path style="fill:#e3e8ec; stroke:none;" d="M224 558L225 559L224 558z"/>
<path style="fill:#686c76; stroke:none;" d="M223 559L224 560L223 559M224 560L225 561L224 560M226 561L227 562L226 561M228 561L228 1337L229 1337L229 786L229 628L229 582L228 561z"/>
<path style="fill:#b6bcc7; stroke:none;" d="M243.333 564.667L243.667 565.333L243.333 564.667M243.333 567.667L243.667 568.333L243.333 567.667M243 575L244 576L243 575M243 583L244 584L243 583z"/>
<path style="fill:#e3e8ec; stroke:none;" d="M242 591L243 592L242 591z"/>
<path style="fill:#b6bcc7; stroke:none;" d="M243 598L244 599L243 598M243.333 603.667L243.667 604.333L243.333 603.667M243 607L244 608L243 607z"/>
<path style="fill:#e3e8ec; stroke:none;" d="M242 611L242 615L243 615L242 611z"/>
<path style="fill:#b6bcc7; stroke:none;" d="M243 630L243 633L244 633L243 630M243.333 635.667L243.667 636.333L243.333 635.667M243 645L244 646L243 645M243 647L243 650L244 650L243 647M243.333 651.667L243.667 652.333L243.333 651.667M243.333 659.667L243.667 660.333L243.333 659.667M243 663L244 664L243 663M243 676L244 677L243 676M243 679L243 682L244 682L243 679M243 684L243 687L244 687L243 684M243 692L243 695L244 695L243 692M243 696L244 697L243 696z"/>
<path style="fill:#868b93; stroke:none;" d="M901 698L902 699L901 698z"/>
<path style="fill:#b6bcc7; stroke:none;" d="M243 699L244 700L243 699M901 699L901 821L902 821L902 736C902 725.366 905.108 708.789 901 699M243.333 704.667L243.667 705.333L243.333 704.667M243.333 709.667L243.667 710.333L243.333 709.667M243.333 713.667L243.667 714.333L243.333 713.667M243 716L244 717L243 716M243 719L244 720L243 719M243 721L244 722L243 721M243 723L244 724L243 723M243 725L244 726L243 725M243 728L244 729L243 728M243 733L244 734L243 733M243 743L244 744L243 743M243 749L244 750L243 749M243 754L244 755L243 754M243.333 765.667L243.667 766.333L243.333 765.667M243.333 775.667L243.667 776.333L243.333 775.667M243 785L244 786L243 785M243 792L244 793L243 792M243 802L243 805L244 805L243 802M243 809L244 810L243 809M243 811L244 812L243 811M243 817L244 818L243 817M243.333 819.667L243.667 820.333L243.333 819.667z"/>
<path style="fill:#868b93; stroke:none;" d="M901 821L901 826L902 826L901 821z"/>
<path style="fill:#b6bcc7; stroke:none;" d="M243 822L244 823L243 822M243 825L244 826L243 825M901 826L901 1327L902 1327L902 972L902 870C902 857.532 905.807 837.456 901 826M243 829L244 830L243 829M243 833L244 834L243 833M243 836L244 837L243 836M243 838L243 841L244 841L243 838M243.333 849.667L243.667 850.333L243.333 849.667M243.333 853.667L243.667 854.333L243.333 853.667M243.333 858.667L243.667 859.333L243.333 858.667M243 878L244 879L243 878M243 881L244 882L243 881M243.333 884.667L243.667 885.333L243.333 884.667M243 890L244 891L243 890M243 893L244 894L243 893M243 896L244 897L243 896M243 901L244 902L243 901M243.333 905.667L243.667 906.333L243.333 905.667M243 918L244 919L243 918M243 923L244 924L243 923M243 931L244 932L243 931M243 933L244 934L243 933M243 938L244 939L243 938M243 946L244 947L243 946M243 948L244 949L243 948M243 951L244 952L243 951M243.333 954.667L243.667 955.333L243.333 954.667M243.333 963.667L243.667 964.333L243.333 963.667M243.333 969.667L243.667 970.333L243.333 969.667M243 976L244 977L243 976M243 983L244 984L243 983M243 986L243 989L244 989L243 986M243 994L244 995L243 994M243.333 996.667L243.667 997.333L243.333 996.667M243 1003L244 1004L243 1003M243 1007L244 1008L243 1007M243 1009L244 1010L243 1009M243 1011L243 1015L244 1015L243 1011M243.333 1017.67L243.667 1018.33L243.333 1017.67M243 1020L244 1021L243 1020M243.333 1030.67L243.667 1031.33L243.333 1030.67M243.333 1033.67L243.667 1034.33L243.333 1033.67M243.333 1036.67L243.667 1037.33L243.333 1036.67M243 1051L244 1052L243 1051M243.333 1062.67L243.667 1063.33L243.333 1062.67M243 1065L244 1066L243 1065M243 1082L243 1085L244 1085L243 1082M243 1088L244 1089L243 1088M243.333 1090.67L243.667 1091.33L243.333 1090.67M243.333 1099.67L243.667 1100.33L243.333 1099.67z"/>
<path style="fill:#e3e8ec; stroke:none;" d="M242 1114L243 1115L242 1114M242 1119L243 1120L242 1119z"/>
<path style="fill:#b6bcc7; stroke:none;" d="M243.333 1132.67L243.667 1133.33L243.333 1132.67z"/>
<path style="fill:#e3e8ec; stroke:none;" d="M242 1141L243 1142L242 1141M242 1149L243 1150L242 1149M242.333 1151.67L242.667 1152.33L242.333 1151.67M242 1155L242 1158L243 1158L242 1155M242 1161L243 1162L242 1161M242 1164L242 1168L243 1168L242 1164M242 1170L243 1171L242 1170z"/>
<path style="fill:#b6bcc7; stroke:none;" d="M243 1176L244 1177L243 1176z"/>
<path style="fill:#e3e8ec; stroke:none;" d="M242 1180L243 1181L242 1180M242 1193L243 1194L242 1193M242 1197L243 1198L242 1197M242 1203L243 1204L242 1203M242 1217L243 1218L242 1217M242 1222L243 1223L242 1222M242 1232L243 1233L242 1232M242 1236L243 1237L242 1236z"/>
<path style="fill:#b6bcc7; stroke:none;" d="M244 1238L245 1239L244 1238z"/>
<path style="fill:#e3e8ec; stroke:none;" d="M242 1241L243 1242L242 1241M242 1248L243 1249L242 1248M242.333 1263.67L242.667 1264.33L242.333 1263.67M242 1271L243 1272L242 1271M242 1275L243 1276L242 1275M242 1287L243 1288L242 1287M237 1288L237 1293L238 1293L237 1288M242 1294L243 1295L242 1294z"/>
<path style="fill:#b6bcc7; stroke:none;" d="M244 1296L245 1297L244 1296z"/>
<path style="fill:#868b93; stroke:none;" d="M901 1327L901 1332L902 1332L901 1327z"/>
<path style="fill:#b6bcc7; stroke:none;" d="M244 1328L245 1329L244 1328M244 1330L245 1331L244 1330z"/>
<path style="fill:#686c76; stroke:none;" d="M901 1332L901 1335L902 1335L901 1332z"/>
<path style="fill:#868b93; stroke:none;" d="M229.333 1339.67L229.667 1340.33L229.333 1339.67z"/>
<path style="fill:#b6bcc7; stroke:none;" d="M900.333 1340.67L900.667 1341.33L900.333 1340.67z"/>
<path style="fill:#686c76; stroke:none;" d="M229 1341L229 1345L230 1345L229 1341z"/>
<path style="fill:#e3e8ec; stroke:none;" d="M244 1342L245 1343L244 1342z"/>
<path style="fill:#686c76; stroke:none;" d="M900.333 1342.67L900.667 1343.33L900.333 1342.67z"/>
<path style="fill:#b6bcc7; stroke:none;" d="M246 1344L247 1345L246 1344z"/>
<path style="fill:#868b93; stroke:none;" d="M230 1346L231 1347L230 1346z"/>
<path style="fill:#b6bcc7; stroke:none;" d="M899.333 1346.67L899.667 1347.33L899.333 1346.67z"/>
<path style="fill:#686c76; stroke:none;" d="M230 1347L230 1350L231 1350L230 1347M899 1348L900 1349L899 1348z"/>
<path style="fill:#e3e8ec; stroke:none;" d="M246 1350L247 1351L246 1350z"/>
<path style="fill:#868b93; stroke:none;" d="M231 1351L232 1352L231 1351z"/>
<path style="fill:#b6bcc7; stroke:none;" d="M898 1351L899 1352L898 1351z"/>
<path style="fill:#686c76; stroke:none;" d="M231.333 1352.67L231.667 1353.33L231.333 1352.67z"/>
<path style="fill:#e3e8ec; stroke:none;" d="M247 1352L248 1353L247 1352z"/>
<path style="fill:#868b93; stroke:none;" d="M898 1352L899 1353L898 1352z"/>
<path style="fill:#686c76; stroke:none;" d="M898 1353L899 1354L898 1353z"/>
<path style="fill:#868b93; stroke:none;" d="M232 1355L233 1356L232 1355z"/>
<path style="fill:#b6bcc7; stroke:none;" d="M897 1355L898 1356L897 1355z"/>
<path style="fill:#686c76; stroke:none;" d="M232 1356L233 1357L232 1356M897 1356L898 1357L897 1356z"/>
<path style="fill:#868b93; stroke:none;" d="M233 1358L234 1359L233 1358z"/>
<path style="fill:#b6bcc7; stroke:none;" d="M896 1358L897 1359L896 1358z"/>
<path style="fill:#686c76; stroke:none;" d="M233.333 1359.67L233.667 1360.33L233.333 1359.67z"/>
<path style="fill:#e3e8ec; stroke:none;" d="M249 1359L250 1360L249 1359z"/>
<path style="fill:#868b93; stroke:none;" d="M896 1359L897 1360L896 1359M234 1361L235 1362L234 1361z"/>
<path style="fill:#b6bcc7; stroke:none;" d="M895 1361L896 1362L895 1361z"/>
<path style="fill:#686c76; stroke:none;" d="M234 1362L235 1363L234 1362z"/>
<path style="fill:#b6bcc7; stroke:none;" d="M252 1362L253 1363L252 1362z"/>
<path style="fill:#686c76; stroke:none;" d="M895 1362L896 1363L895 1362z"/>
<path style="fill:#868b93; stroke:none;" d="M235 1364L236 1365L235 1364z"/>
<path style="fill:#b6bcc7; stroke:none;" d="M894 1364L895 1365L894 1364z"/>
<path style="fill:#686c76; stroke:none;" d="M235 1365L236 1366L235 1365M894 1365L895 1366L894 1365z"/>
<path style="fill:#e3e8ec; stroke:none;" d="M252 1366L253 1367L252 1366z"/>
<path style="fill:#686c76; stroke:none;" d="M236 1367L237 1368L236 1367z"/>
<path style="fill:#868b93; stroke:none;" d="M893 1367L894 1368L893 1367z"/>
<path style="fill:#b6bcc7; stroke:none;" d="M255 1368L256 1369L255 1368z"/>
<path style="fill:#686c76; stroke:none;" d="M237 1369L238 1370L237 1369z"/>
<path style="fill:#b6bcc7; stroke:none;" d="M892 1369L893 1370L892 1369z"/>
<path style="fill:#868b93; stroke:none;" d="M238 1371L239 1372L238 1371z"/>
<path style="fill:#b6bcc7; stroke:none;" d="M891 1371L892 1372L891 1371z"/>
<path style="fill:#686c76; stroke:none;" d="M238 1372L239 1373L238 1372z"/>
<path style="fill:#b6bcc7; stroke:none;" d="M257.333 1372.67L257.667 1373.33L257.333 1372.67z"/>
<path style="fill:#686c76; stroke:none;" d="M891 1372L892 1373L891 1372z"/>
<path style="fill:#868b93; stroke:none;" d="M239 1373L240 1374L239 1373z"/>
<path style="fill:#b6bcc7; stroke:none;" d="M890 1373L891 1374L890 1373z"/>
<path style="fill:#686c76; stroke:none;" d="M239 1374L240 1375L239 1374M890 1374L891 1375L890 1374z"/>
<path style="fill:#868b93; stroke:none;" d="M240 1375L241 1376L240 1375z"/>
<path style="fill:#b6bcc7; stroke:none;" d="M889 1375L890 1376L889 1375M259 1376L271 1389L259 1376z"/>
<path style="fill:#686c76; stroke:none;" d="M241 1377L242 1378L241 1377z"/>
<path style="fill:#868b93; stroke:none;" d="M888 1377L889 1378L888 1377z"/>
<path style="fill:#686c76; stroke:none;" d="M242 1379L243 1380L242 1379M887 1379L888 1380L887 1379z"/>
<path style="fill:#868b93; stroke:none;" d="M243 1380L244 1381L243 1380z"/>
<path style="fill:#b6bcc7; stroke:none;" d="M886 1380L887 1381L886 1380z"/>
<path style="fill:#686c76; stroke:none;" d="M243 1381L244 1382L243 1381M886 1381L887 1382L886 1381M244 1382L245 1383L244 1382z"/>
<path style="fill:#868b93; stroke:none;" d="M885 1382L886 1383L885 1382z"/>
<path style="fill:#686c76; stroke:none;" d="M245 1384L246 1385L245 1384M884 1384L885 1385L884 1384M246 1385L247 1386L246 1385z"/>
<path style="fill:#e3e8ec; stroke:none;" d="M247 1385L248 1386L247 1385z"/>
<path style="fill:#868b93; stroke:none;" d="M883 1385L884 1386L883 1385z"/>
<path style="fill:#b6bcc7; stroke:none;" d="M882 1386L883 1387L882 1386z"/>
<path style="fill:#686c76; stroke:none;" d="M248 1388L249 1389L248 1388M881 1388L882 1389L881 1388M249 1389L250 1390L249 1389z"/>
<path style="fill:#b6bcc7; stroke:none;" d="M272 1389L274 1392L272 1389M880 1389L881 1390L880 1389z"/>
<path style="fill:#868b93; stroke:none;" d="M250 1390L251 1391L250 1390z"/>
<path style="fill:#b6bcc7; stroke:none;" d="M879 1390L880 1391L879 1390M862 1391L850 1401L823 1410L823 1412C820.208 1411.07 819.575 1410.12 819 1413C815.934 1411.47 814.511 1411.44 814 1414L813 1414L813 1412L812 1412L790 1415L789 1415C786.421 1412.38 782.462 1413.67 779.001 1413.62C770.286 1413.51 753.28 1409.95 746 1415L766 1414L766 1416L777 1414L777 1416C800.609 1411.76 822.623 1417.43 845 1405.14C850.473 1402.13 860.42 1397.44 862 1391z"/>
<path style="fill:#686c76; stroke:none;" d="M251 1392L252 1393L251 1392z"/>
<path style="fill:#b6bcc7; stroke:none;" d="M275 1392L281 1397L281 1396L275 1392z"/>
<path style="fill:#686c76; stroke:none;" d="M878 1392L879 1393L878 1392M252 1393L253 1394L252 1393M877 1393L878 1394L877 1393M253 1394L254 1395L253 1394z"/>
<path style="fill:#868b93; stroke:none;" d="M876 1394L877 1395L876 1394z"/>
<path style="fill:#686c76; stroke:none;" d="M254 1395L255 1396L254 1395z"/>
<path style="fill:#e3e8ec; stroke:none;" d="M255 1395L263 1403L255 1395z"/>
<path style="fill:#868b93; stroke:none;" d="M875 1395L876 1396L875 1395M255 1396L256 1397L255 1396M874 1396L875 1397L874 1396M256 1397L257 1398L256 1397M873 1397L874 1398L873 1397M257 1398L258 1399L257 1398z"/>
<path style="fill:#b6bcc7; stroke:none;" d="M864 1398L865 1400L864 1400L845 1412C841.452 1411.98 832.56 1414.23 832 1418C829.763 1417.21 828 1416.37 828 1419C825.832 1418.28 824.969 1417.71 825 1420C822.079 1419.14 813.577 1418.54 813 1422C809.672 1420.92 795.637 1419.18 795 1423L792 1423C791.469 1419.75 782.039 1420.97 779 1421C767.574 1421.13 745.798 1417.31 736 1423L716 1420L715 1420L710 1420L709 1420L704 1420L703 1420L698 1420L691 1420L690 1420C687.746 1422.13 681.121 1422.14 679 1420L678 1420C676.334 1421.86 671.433 1422.18 670 1420L669 1420L654 1420C652.218 1421.99 645.501 1422.28 644 1420L643 1420C640.759 1422.1 635.114 1422.23 633 1420L632 1420L620 1422L621 1420L620 1420L614 1422L615 1420L614 1420L606 1422L605 1422L604 1420L601 1420L600 1420L592 1422L592 1423C665.165 1432.86 741.131 1421.17 815 1427L814 1425L822 1426C822 1422.91 824.558 1424.55 827 1425C827 1422.56 827.786 1423.39 830 1424L834 1423L833 1421L834 1421L836 1422L837 1422L836 1420L839 1421L842 1420L841 1418L844 1419L846 1418L846 1416L848 1417L848 1415L850 1416L871 1398L866 1401L864 1398z"/>
<path style="fill:#868b93; stroke:none;" d="M872 1398L873 1399L872 1398M258 1399L259 1400L258 1399M871 1399L872 1400L871 1399M259 1400L260 1401L259 1400z"/>
<path style="fill:#b6bcc7; stroke:none;" d="M287 1400L288 1401L287 1400z"/>
<path style="fill:#868b93; stroke:none;" d="M870 1400L871 1401L870 1400M260 1401L261 1402L260 1401z"/>
<path style="fill:#b6bcc7; stroke:none;" d="M289 1401L290 1402L289 1401z"/>
<path style="fill:#868b93; stroke:none;" d="M869 1401L870 1402L869 1401z"/>
<path style="fill:#686c76; stroke:none;" d="M261 1402L262 1403L261 1402z"/>
<path style="fill:#b6bcc7; stroke:none;" d="M291 1402L292 1403L291 1402z"/>
<path style="fill:#868b93; stroke:none;" d="M868 1402L869 1403L868 1402z"/>
<path style="fill:#686c76; stroke:none;" d="M262 1403L263 1404L262 1403z"/>
<path style="fill:#e3e8ec; stroke:none;" d="M844 1403L845 1404L844 1403z"/>
<path style="fill:#868b93; stroke:none;" d="M867 1403L868 1404L867 1403z"/>
<path style="fill:#686c76; stroke:none;" d="M263 1404L264 1405L263 1404z"/>
<path style="fill:#b6bcc7; stroke:none;" d="M296 1404L297 1405L296 1404z"/>
<path style="fill:#686c76; stroke:none;" d="M866 1404L867 1405L866 1404M264 1405L265 1406L264 1405z"/>
<path style="fill:#e3e8ec; stroke:none;" d="M266 1405L268 1407L266 1405z"/>
<path style="fill:#b6bcc7; stroke:none;" d="M298 1405L299 1406L298 1405z"/>
<path style="fill:#e3e8ec; stroke:none;" d="M840 1405L841 1406L840 1405z"/>
<path style="fill:#b6bcc7; stroke:none;" d="M864 1405L865 1406L864 1405z"/>
<path style="fill:#686c76; stroke:none;" d="M865 1405L866 1406L865 1405z"/>
<path style="fill:#868b93; stroke:none;" d="M266 1406L267 1407L266 1406z"/>
<path style="fill:#b6bcc7; stroke:none;" d="M302 1406L303 1407L302 1406M863 1406L864 1407L863 1406z"/>
<path style="fill:#686c76; stroke:none;" d="M267 1407L268 1408L267 1407z"/>
<path style="fill:#e3e8ec; stroke:none;" d="M835 1407L836 1408L835 1407z"/>
<path style="fill:#868b93; stroke:none;" d="M862 1407L863 1408L862 1407z"/>
<path style="fill:#686c76; stroke:none;" d="M268 1408L269 1409L268 1408z"/>
<path style="fill:#e3e8ec; stroke:none;" d="M270 1408L272 1410L270 1408M832 1408L833 1409L832 1408z"/>
<path style="fill:#b6bcc7; stroke:none;" d="M860 1408L861 1409L860 1408z"/>
<path style="fill:#686c76; stroke:none;" d="M861 1408L862 1409L861 1408z"/>
<path style="fill:#868b93; stroke:none;" d="M270 1409L271 1410L270 1409z"/>
<path style="fill:#b6bcc7; stroke:none;" d="M859 1409L860 1410L859 1409z"/>
<path style="fill:#686c76; stroke:none;" d="M271 1410L272 1411L271 1410z"/>
<path style="fill:#e3e8ec; stroke:none;" d="M826 1410L827 1411L826 1410z"/>
<path style="fill:#686c76; stroke:none;" d="M858 1410L859 1411L858 1410z"/>
<path style="fill:#e3e8ec; stroke:none;" d="M274 1411L275 1412L274 1411z"/>
<path style="fill:#b6bcc7; stroke:none;" d="M856 1411L857 1412L856 1411z"/>
<path style="fill:#686c76; stroke:none;" d="M274 1412L275 1413L274 1412z"/>
<path style="fill:#e3e8ec; stroke:none;" d="M276 1412L278 1414L276 1412z"/>
<path style="fill:#b6bcc7; stroke:none;" d="M394 1412L395 1413L394 1412z"/>
<path style="fill:#868b93; stroke:none;" d="M855 1412L856 1413L855 1412M276 1413L277 1414L276 1413z"/>
<path style="fill:#b6bcc7; stroke:none;" d="M649 1413L649 1414C658.552 1416.99 670.097 1415.47 680 1415.14C699.858 1414.48 725.763 1411.42 745 1416C743.967 1411.25 726.792 1413.28 722.222 1413.33C698.334 1413.6 672.693 1415.82 649 1413z"/>
<path style="fill:#868b93; stroke:none;" d="M853 1413L854 1414L853 1413z"/>
<path style="fill:#686c76; stroke:none;" d="M277 1414L278 1415L277 1414z"/>
<path style="fill:#e3e8ec; stroke:none;" d="M279 1414L280 1415L279 1414M481 1414L482 1415L481 1414M762 1414L763 1415L762 1414M793 1414L794 1415L793 1414z"/>
<path style="fill:#b6bcc7; stroke:none;" d="M851 1414L852 1415L851 1414z"/>
<path style="fill:#686c76; stroke:none;" d="M852 1414L853 1415L852 1414M279 1415L280 1416L279 1415z"/>
<path style="fill:#e3e8ec; stroke:none;" d="M281 1415L282 1416L281 1415M848 1415L849 1416L848 1415z"/>
<path style="fill:#868b93; stroke:none;" d="M850 1415L851 1416L850 1415z"/>
<path style="fill:#686c76; stroke:none;" d="M281 1416L282 1417L281 1416z"/>
<path style="fill:#e3e8ec; stroke:none;" d="M283 1416L284 1417L283 1416M846 1416L847 1417L846 1416z"/>
<path style="fill:#868b93; stroke:none;" d="M848 1416L849 1417L848 1416z"/>
<path style="fill:#686c76; stroke:none;" d="M283 1417L284 1418L283 1417z"/>
<path style="fill:#e3e8ec; stroke:none;" d="M285 1417L286 1418L285 1417M311 1417L312 1418L311 1417M844 1417L845 1418L844 1417z"/>
<path style="fill:#868b93; stroke:none;" d="M846 1417L847 1418L846 1417z"/>
<path style="fill:#686c76; stroke:none;" d="M285 1418L286 1419L285 1418z"/>
<path style="fill:#e3e8ec; stroke:none;" d="M287 1418L288 1419L287 1418M316 1418L317 1419L316 1418M318.667 1418.33L319.333 1418.67L318.667 1418.33z"/>
<path style="fill:#b6bcc7; stroke:none;" d="M353 1418L354 1419L353 1418M355 1418L356 1419L355 1418M357 1418L357 1419L364 1419L364 1418L357 1418M373 1418L373 1419L378 1419L378 1418L373 1418M379.333 1418.67L379.667 1419.33L379.333 1418.67M381 1419L381 1420L384 1420L381 1419M386 1419L386 1420L390 1419L386 1419M391.333 1418.67L391.667 1419.33L391.333 1418.67M393 1418L394 1419L393 1418M397 1418L397 1419L400 1419L400 1418L397 1418M403 1418L404 1419L403 1418M407 1418L408 1419L407 1418M412 1418L413 1419L412 1418M419 1418L420 1419L419 1418M421 1418L422 1419L421 1418M423 1418L424 1419L423 1418M425 1419L425 1420L428 1420L425 1419M431 1418L432 1419L431 1418M437 1418L438 1419L437 1418M440.333 1418.67L440.667 1419.33L440.333 1418.67M443 1418L444 1419L443 1418M446 1418L447 1419L446 1418M456 1418L457 1419L456 1418M459 1418L460 1419L459 1418M461 1418L462 1419L461 1418M466 1418L465 1420L466 1418M476 1418L477 1419L476 1418M488 1418L489 1419L488 1418M502 1418L503 1419L502 1418M521 1418L522 1419L521 1418M525 1418L526 1419L525 1418M528 1418L529 1421L530 1421L528 1418M531 1418L532 1419L531 1418M535 1418L536 1419L535 1418M549 1418L550 1419L549 1418M571 1418L572 1419L571 1418M582 1418L583 1419L582 1418M603 1418L604 1419L603 1418M607 1418L608 1419L607 1418M623 1418L624 1419L623 1418z"/>
<path style="fill:#e3e8ec; stroke:none;" d="M841.667 1418.33L842.333 1418.67L841.667 1418.33z"/>
<path style="fill:#868b93; stroke:none;" d="M844 1418L845 1419L844 1418z"/>
<path style="fill:#686c76; stroke:none;" d="M287 1419L288 1420L287 1419z"/>
<path style="fill:#e3e8ec; stroke:none;" d="M290 1419L291 1420L290 1419M327.667 1419.33L328.333 1419.67L327.667 1419.33z"/>
<path style="fill:#b6bcc7; stroke:none;" d="M405 1419L406 1420L405 1419M409 1419L410 1420L409 1419M429 1419L430 1420L429 1419M450 1419L449 1421L450 1419M452 1419L453 1420L452 1419M472.333 1419.67L472.667 1420.33L472.333 1419.67M538 1419L537 1421L538 1419M543 1419L544 1420L543 1419M564 1419L565 1420L564 1419z"/>
<path style="fill:#e3e8ec; stroke:none;" d="M839.667 1419.33L840.333 1419.67L839.667 1419.33z"/>
<path style="fill:#686c76; stroke:none;" d="M842 1419L843 1420L842 1419M289 1420L290 1421L289 1420z"/>
<path style="fill:#868b93; stroke:none;" d="M290 1420L291 1421L290 1420z"/>
<path style="fill:#e3e8ec; stroke:none;" d="M292 1420L293 1421L292 1420z"/>
<path style="fill:#b6bcc7; stroke:none;" d="M520 1420L521 1421L520 1420M531 1420L532 1421L531 1420M533 1420L534 1421L533 1420M535 1420L536 1421L535 1420M541 1420L542 1421L541 1420M545 1420L546 1421L545 1420M556 1420C560.962 1425.11 588.216 1425.25 593 1420C588.185 1421.15 577.076 1423.04 573 1420L572 1420L572 1422L571 1422L571 1420L570 1420L570 1422L559 1422L558 1422L556 1420M595 1420L596 1421L595 1420M609 1420L610 1421L609 1420M616 1420L617 1421L616 1420M624 1420L625 1421L624 1420M635 1420L635 1421L638 1421L635 1420M640 1420L641 1421L640 1420M646 1420L647 1421L646 1420M649 1420L650 1421L649 1420M651 1420L652 1421L651 1420M665.667 1420.33L666.333 1420.67L665.667 1420.33M672 1420L673 1421L672 1420M675 1420L676 1421L675 1420M681.667 1420.33L682.333 1420.67L681.667 1420.33M685 1420L686 1421L685 1420M687 1420L688 1421L687 1420M693 1420L694 1421L693 1420M695 1420L696 1421L695 1420M700 1420L701 1421L700 1420M706 1420L707 1421L706 1420M712 1420L713 1421L712 1420M740 1420L741 1421L740 1420M754 1420L755 1421L754 1420M761 1420L762 1421L761 1420M773 1420L774 1421L773 1420M805 1420L806 1421L805 1420z"/>
<path style="fill:#e3e8ec; stroke:none;" d="M836.667 1420.33L837.333 1420.67L836.667 1420.33z"/>
<path style="fill:#868b93; stroke:none;" d="M839 1420L840 1421L839 1420z"/>
<path style="fill:#686c76; stroke:none;" d="M840 1420L841 1421L840 1420M292 1421L293 1422L292 1421z"/>
<path style="fill:#868b93; stroke:none;" d="M293 1421L294 1422L293 1421z"/>
<path style="fill:#e3e8ec; stroke:none;" d="M295 1421L296 1422L295 1421M455 1421L456 1422L455 1421M477 1421L478 1422L477 1421M481 1421L482 1422L481 1421M483 1421L484 1422L483 1421M489.667 1421.33L490.333 1421.67L489.667 1421.33M492.667 1421.33L493.333 1421.67L492.667 1421.33M497.667 1421.33L498.333 1421.67L497.667 1421.33M504.667 1421.33L505.333 1421.67L504.667 1421.33M560 1421L561 1422L560 1421M833.667 1421.33L834.333 1421.67L833.667 1421.33z"/>
<path style="fill:#686c76; stroke:none;" d="M837 1421L838 1422L837 1421M295 1422L296 1423L295 1422z"/>
<path style="fill:#868b93; stroke:none;" d="M296 1422L297 1423L296 1422z"/>
<path style="fill:#e3e8ec; stroke:none;" d="M298.667 1422.33L299.333 1422.67L298.667 1422.33M527 1422L528 1423L527 1422M722 1422L723 1423L722 1422M749 1422L750 1423L749 1422M775 1422L776 1423L775 1422M780 1422L781 1423L780 1422M782 1422L783 1423L782 1422M786 1422L787 1423L786 1422M790 1422L791 1423L790 1422M796 1422L797 1423L796 1422M801 1422L802 1423L801 1422M830.667 1422.33L831.333 1422.67L830.667 1422.33z"/>
<path style="fill:#868b93; stroke:none;" d="M834 1422L835 1423L834 1422z"/>
<path style="fill:#686c76; stroke:none;" d="M298 1423L299 1424L298 1423z"/>
<path style="fill:#868b93; stroke:none;" d="M299 1423L300 1424L299 1423z"/>
<path style="fill:#e3e8ec; stroke:none;" d="M302.667 1423.33L303.333 1423.67L302.667 1423.33M826 1423L826 1424L829 1424L826 1423z"/>
<path style="fill:#868b93; stroke:none;" d="M830 1423L831 1424L830 1423z"/>
<path style="fill:#686c76; stroke:none;" d="M831 1423L832 1424L831 1423M301 1424L302 1425L301 1424z"/>
<path style="fill:#868b93; stroke:none;" d="M302.667 1424.33L303.333 1424.67L302.667 1424.33z"/>
<path style="fill:#e3e8ec; stroke:none;" d="M306.667 1424.33L307.333 1424.67L306.667 1424.33z"/>
<path style="fill:#b6bcc7; stroke:none;" d="M534 1424L534 1425L537 1425L534 1424z"/>
<path style="fill:#868b93; stroke:none;" d="M537 1424L537 1425L593 1425L575 1424L537 1424z"/>
<path style="fill:#b6bcc7; stroke:none;" d="M593 1424L593 1425L596 1425L593 1424z"/>
<path style="fill:#e3e8ec; stroke:none;" d="M821 1424L821 1425L825 1425L821 1424z"/>
<path style="fill:#868b93; stroke:none;" d="M827 1424L828 1425L827 1424z"/>
<path style="fill:#686c76; stroke:none;" d="M828 1424L829 1425L828 1424M305.667 1425.33L306.333 1425.67L305.667 1425.33z"/>
<path style="fill:#868b93; stroke:none;" d="M307 1425L308 1426L307 1425z"/>
<path style="fill:#e3e8ec; stroke:none;" d="M311 1425L311 1426L316 1426L311 1425M320 1426L320 1427L506 1426L489 1425.99L452 1426L320 1426z"/>
<path style="fill:#b6bcc7; stroke:none;" d="M530 1425L531 1426L530 1425z"/>
<path style="fill:#868b93; stroke:none;" d="M531 1425L532 1426L531 1425z"/>
<path style="fill:#686c76; stroke:none;" d="M532 1425L533 1426L532 1425M596.667 1425.33L597.333 1425.67L596.667 1425.33z"/>
<path style="fill:#868b93; stroke:none;" d="M598 1425L599 1426L598 1425z"/>
<path style="fill:#b6bcc7; stroke:none;" d="M599 1425L600 1426L599 1425z"/>
<path style="fill:#e3e8ec; stroke:none;" d="M814 1425L814 1426L820 1426L814 1425z"/>
<path style="fill:#868b93; stroke:none;" d="M822.667 1425.33L823.333 1425.67L822.667 1425.33z"/>
<path style="fill:#686c76; stroke:none;" d="M824 1425L825 1426L824 1425M310 1426L310 1427L313 1427L310 1426z"/>
<path style="fill:#868b93; stroke:none;" d="M313.667 1426.33L314.333 1426.67L313.667 1426.33z"/>
<path style="fill:#b6bcc7; stroke:none;" d="M496.667 1426.33L497.333 1426.67L496.667 1426.33z"/>
<path style="fill:#868b93; stroke:none;" d="M498 1426L498 1427L505 1427L498 1426z"/>
<path style="fill:#b6bcc7; stroke:none;" d="M527 1426L528 1427L527 1426z"/>
<path style="fill:#868b93; stroke:none;" d="M528 1426L529 1427L528 1426z"/>
<path style="fill:#686c76; stroke:none;" d="M529 1426L530 1427L529 1426M600 1426L601 1427L600 1426z"/>
<path style="fill:#868b93; stroke:none;" d="M601 1426L602 1427L601 1426z"/>
<path style="fill:#b6bcc7; stroke:none;" d="M602 1426L603 1427L602 1426M623.667 1426.33L624.333 1426.67L623.667 1426.33z"/>
<path style="fill:#868b93; stroke:none;" d="M625 1426L625 1427L632 1427L625 1426z"/>
<path style="fill:#b6bcc7; stroke:none;" d="M632.667 1426.33L633.333 1426.67L632.667 1426.33z"/>
<path style="fill:#868b93; stroke:none;" d="M815 1426L815 1427L818 1427L815 1426z"/>
<path style="fill:#686c76; stroke:none;" d="M818.667 1426.33L819.333 1426.67L818.667 1426.33M319 1427L319 1428L324 1428L319 1427z"/>
<path style="fill:#868b93; stroke:none;" d="M324 1427L324 1428L375 1428C361.873 1422.49 338.311 1427 324 1427z"/>
<path style="fill:#b6bcc7; stroke:none;" d="M375 1427L376 1428L375 1427z"/>
<path style="fill:#868b93; stroke:none;" d="M376.667 1427.33L377.333 1427.67L376.667 1427.33z"/>
<path style="fill:#686c76; stroke:none;" d="M378 1427L378 1428L387 1428L378 1427z"/>
<path style="fill:#868b93; stroke:none;" d="M387.667 1427.33L388.333 1427.67L387.667 1427.33z"/>
<path style="fill:#b6bcc7; stroke:none;" d="M389 1427L390 1428L389 1427z"/>
<path style="fill:#868b93; stroke:none;" d="M390 1427L390 1428L393 1428L390 1427z"/>
<path style="fill:#b6bcc7; stroke:none;" d="M393.667 1427.33L394.333 1427.67L393.667 1427.33z"/>
<path style="fill:#868b93; stroke:none;" d="M395 1427L396 1428L395 1427z"/>
<path style="fill:#686c76; stroke:none;" d="M396 1427L396 1428L405 1428L396 1427z"/>
<path style="fill:#868b93; stroke:none;" d="M405.667 1427.33L406.333 1427.67L405.667 1427.33z"/>
<path style="fill:#b6bcc7; stroke:none;" d="M407 1427L408 1428L407 1427z"/>
<path style="fill:#868b93; stroke:none;" d="M408.667 1427.33L409.333 1427.67L408.667 1427.33z"/>
<path style="fill:#b6bcc7; stroke:none;" d="M410.667 1427.33L411.333 1427.67L410.667 1427.33z"/>
<path style="fill:#868b93; stroke:none;" d="M412 1427L412 1428L415 1428L412 1427z"/>
<path style="fill:#686c76; stroke:none;" d="M415 1427L415 1428L423 1428L415 1427z"/>
<path style="fill:#868b93; stroke:none;" d="M423.667 1427.33L424.333 1427.67L423.667 1427.33z"/>
<path style="fill:#b6bcc7; stroke:none;" d="M425.667 1427.33L426.333 1427.67L425.667 1427.33z"/>
<path style="fill:#868b93; stroke:none;" d="M427.667 1427.33L428.333 1427.67L427.667 1427.33z"/>
<path style="fill:#b6bcc7; stroke:none;" d="M429.667 1427.33L430.333 1427.67L429.667 1427.33z"/>
<path style="fill:#868b93; stroke:none;" d="M431.667 1427.33L432.333 1427.67L431.667 1427.33z"/>
<path style="fill:#686c76; stroke:none;" d="M433 1427L433 1428L441 1428L433 1427z"/>
<path style="fill:#868b93; stroke:none;" d="M441.667 1427.33L442.333 1427.67L441.667 1427.33z"/>
<path style="fill:#b6bcc7; stroke:none;" d="M443 1427L443 1428L446 1428L443 1427z"/>
<path style="fill:#868b93; stroke:none;" d="M446.667 1427.33L447.333 1427.67L446.667 1427.33z"/>
<path style="fill:#b6bcc7; stroke:none;" d="M448 1427L449 1428L448 1427z"/>
<path style="fill:#868b93; stroke:none;" d="M449.667 1427.33L450.333 1427.67L449.667 1427.33z"/>
<path style="fill:#686c76; stroke:none;" d="M451 1427L451 1428L459 1428L451 1427z"/>
<path style="fill:#868b93; stroke:none;" d="M459.667 1427.33L460.333 1427.67L459.667 1427.33z"/>
<path style="fill:#b6bcc7; stroke:none;" d="M461.667 1427.33L462.333 1427.67L461.667 1427.33z"/>
<path style="fill:#868b93; stroke:none;" d="M463 1427L464 1428L463 1427z"/>
<path style="fill:#b6bcc7; stroke:none;" d="M464 1427L465 1428L464 1427z"/>
<path style="fill:#868b93; stroke:none;" d="M465 1427L466 1428L465 1427z"/>
<path style="fill:#b6bcc7; stroke:none;" d="M466 1427L467 1428L466 1427z"/>
<path style="fill:#868b93; stroke:none;" d="M467.667 1427.33L468.333 1427.67L467.667 1427.33z"/>
<path style="fill:#686c76; stroke:none;" d="M469 1427L469 1428L478 1428L469 1427z"/>
<path style="fill:#868b93; stroke:none;" d="M478.667 1427.33L479.333 1427.67L478.667 1427.33z"/>
<path style="fill:#b6bcc7; stroke:none;" d="M480 1427L481 1428L480 1427z"/>
<path style="fill:#868b93; stroke:none;" d="M481 1427L482 1428L481 1427z"/>
<path style="fill:#b6bcc7; stroke:none;" d="M482 1427L483 1428L482 1427z"/>
<path style="fill:#868b93; stroke:none;" d="M483 1427L483 1428L494 1428L483 1427z"/>
<path style="fill:#686c76; stroke:none;" d="M494 1427L495 1428L494 1427M507.667 1427.33L508.333 1427.67L507.667 1427.33z"/>
<path style="fill:#868b93; stroke:none;" d="M509 1427L509 1428L521 1428L509 1427z"/>
<path style="fill:#b6bcc7; stroke:none;" d="M521 1427L522 1428L521 1427z"/>
<path style="fill:#868b93; stroke:none;" d="M522 1427L523 1428L522 1427z"/>
<path style="fill:#b6bcc7; stroke:none;" d="M523.667 1427.33L524.333 1427.67L523.667 1427.33z"/>
<path style="fill:#868b93; stroke:none;" d="M525 1427L526 1428L525 1427z"/>
<path style="fill:#686c76; stroke:none;" d="M526 1427L527 1428L526 1427M603 1427L604 1428L603 1427z"/>
<path style="fill:#868b93; stroke:none;" d="M604 1427L605 1428L604 1427z"/>
<path style="fill:#b6bcc7; stroke:none;" d="M605 1427L605 1428L609 1428L605 1427z"/>
<path style="fill:#868b93; stroke:none;" d="M609 1427L609 1428L621 1428L609 1427z"/>
<path style="fill:#686c76; stroke:none;" d="M621.667 1427.33L622.333 1427.67L621.667 1427.33M635 1427L636 1428L635 1427z"/>
<path style="fill:#868b93; stroke:none;" d="M636 1427L636 1428L645 1428L636 1427z"/>
<path style="fill:#b6bcc7; stroke:none;" d="M645 1427L645 1428L650 1428L645 1427z"/>
<path style="fill:#868b93; stroke:none;" d="M650.667 1427.33L651.333 1427.67L650.667 1427.33z"/>
<path style="fill:#686c76; stroke:none;" d="M652 1427L652 1428L660 1428L652 1427z"/>
<path style="fill:#868b93; stroke:none;" d="M660.667 1427.33L661.333 1427.67L660.667 1427.33z"/>
<path style="fill:#b6bcc7; stroke:none;" d="M662 1427L662 1428L669 1428L662 1427z"/>
<path style="fill:#868b93; stroke:none;" d="M669 1427L670 1428L669 1427z"/>
<path style="fill:#686c76; stroke:none;" d="M670 1427L670 1428L679 1428L670 1427z"/>
<path style="fill:#868b93; stroke:none;" d="M679 1427L680 1428L679 1427z"/>
<path style="fill:#b6bcc7; stroke:none;" d="M680 1427L680 1428L687 1428L680 1427z"/>
<path style="fill:#868b93; stroke:none;" d="M687.667 1427.33L688.333 1427.67L687.667 1427.33z"/>
<path style="fill:#686c76; stroke:none;" d="M689 1427L689 1428L697 1428L689 1427z"/>
<path style="fill:#868b93; stroke:none;" d="M697.667 1427.33L698.333 1427.67L697.667 1427.33z"/>
<path style="fill:#b6bcc7; stroke:none;" d="M699 1427L699 1428L705 1428L699 1427z"/>
<path style="fill:#868b93; stroke:none;" d="M705.667 1427.33L706.333 1427.67L705.667 1427.33z"/>
<path style="fill:#686c76; stroke:none;" d="M707 1427L707 1428L715 1428L707 1427z"/>
<path style="fill:#868b93; stroke:none;" d="M715.667 1427.33L716.333 1427.67L715.667 1427.33z"/>
<path style="fill:#b6bcc7; stroke:none;" d="M717 1427L717 1428L723 1428L717 1427z"/>
<path style="fill:#868b93; stroke:none;" d="M723.667 1427.33L724.333 1427.67L723.667 1427.33z"/>
<path style="fill:#686c76; stroke:none;" d="M725 1427L725 1428L733 1428L725 1427z"/>
<path style="fill:#868b93; stroke:none;" d="M733.667 1427.33L734.333 1427.67L733.667 1427.33z"/>
<path style="fill:#b6bcc7; stroke:none;" d="M735 1427L735 1428L741 1428L735 1427z"/>
<path style="fill:#868b93; stroke:none;" d="M741.667 1427.33L742.333 1427.67L741.667 1427.33z"/>
<path style="fill:#686c76; stroke:none;" d="M743 1427L743 1428L751 1428L743 1427z"/>
<path style="fill:#868b93; stroke:none;" d="M751.667 1427.33L752.333 1427.67L751.667 1427.33z"/>
<path style="fill:#b6bcc7; stroke:none;" d="M753 1427L753 1428L800 1428C787.823 1422.89 766.265 1427 753 1427z"/>
<path style="fill:#868b93; stroke:none;" d="M800 1427L800 1428L807 1428L800 1427z"/>
<path style="fill:#686c76; stroke:none;" d="M807.667 1427.33L808.333 1427.67L807.667 1427.33z"/>
<path style="fill:#868b93; stroke:none;" d="M809 1427L810 1428L809 1427z"/>
<path style="fill:#686c76; stroke:none;" d="M810 1427L811 1428L810 1427z"/>
</svg>
