<?xml version="1.0" encoding="iso-8859-1"?>
<!-- Generator: Adobe Illustrator 19.0.0, SVG Export Plug-In . SVG Version: 6.00 Build 0)  -->
<svg version="1.1" id="Layer_1" xmlns="http://www.w3.org/2000/svg" xmlns:xlink="http://www.w3.org/1999/xlink" x="0px" y="0px"
	 viewBox="0 0 491.52 491.52" style="enable-background:new 0 0 491.52 491.52;" xml:space="preserve">
<g>
	<g>
		<path d="M368.64,378.88c22.59,0,40.96-18.375,40.96-40.96V194.56c0-22.585-18.37-40.96-40.96-40.96H358.4v-40.96
			C358.4,50.53,307.87,0,245.76,0S133.12,50.53,133.12,112.64v40.96h-10.24c-22.59,0-40.96,18.375-40.96,40.96v143.36
			c0,22.585,18.37,40.96,40.96,40.96h112.64v51.2h-20.48v20.48H92.16v20.48h122.88v20.48h61.44v-20.48h122.88v-20.48H276.48v-20.48
			H256v-51.2H368.64z M153.6,112.64c0-50.815,41.34-92.16,92.16-92.16s92.16,41.345,92.16,92.16v40.96H307.2v-40.96
			c0-33.88-27.56-61.44-61.44-61.44s-61.44,27.56-61.44,61.44v40.96H153.6V112.64z M286.72,112.64v40.96H204.8v-40.96
			c0-22.585,18.37-40.96,40.96-40.96C268.35,71.68,286.72,90.055,286.72,112.64z M256,471.04h-20.48v-20.48H256V471.04z
			 M122.88,358.4c-11.29,0-20.48-9.185-20.48-20.48v-10.24h20.48V307.2H102.4v-30.72h40.96V256H102.4v-30.72h20.48V204.8H102.4
			v-10.24c0-11.295,9.19-20.48,20.48-20.48h245.76c11.29,0,20.48,9.185,20.48,20.48v10.24h-20.48v20.48h20.48V256h-40.96v20.48
			h40.96v30.72h-20.48v20.48h20.48v10.24c0,11.295-9.19,20.48-20.48,20.48H122.88z"/>
	</g>
</g>
<g>
	<g>
		<polygon points="289.72,228.28 225.28,292.72 201.8,269.24 187.32,283.72 225.28,321.68 304.2,242.76 		"/>
	</g>
</g>
<g>
</g>
<g>
</g>
<g>
</g>
<g>
</g>
<g>
</g>
<g>
</g>
<g>
</g>
<g>
</g>
<g>
</g>
<g>
</g>
<g>
</g>
<g>
</g>
<g>
</g>
<g>
</g>
<g>
</g>
</svg>
