<?xml version="1.0" encoding="iso-8859-1"?>
<!-- Generator: Adobe Illustrator 19.0.0, SVG Export Plug-In . SVG Version: 6.00 Build 0)  -->
<svg version="1.1" id="Layer_1" xmlns="http://www.w3.org/2000/svg" xmlns:xlink="http://www.w3.org/1999/xlink" x="0px" y="0px"
	 viewBox="0 0 512.002 512.002" style="enable-background:new 0 0 512.002 512.002;" xml:space="preserve">
<g transform="translate(0 -1)">
	<g>
		<g>
			<path d="M230.4,393.537c-14.114,0-25.6,11.486-25.6,25.6s11.486,25.6,25.6,25.6s25.6-11.486,25.6-25.6
				S244.514,393.537,230.4,393.537z"/>
			<path d="M97.901,160.661c6.349-3.755,13.662-6.059,21.564-6.059c23.526,0,42.667,19.14,42.667,42.667
				c0,7.526-2.125,14.507-5.564,20.651c38.733,34.756,86.869,72.132,140.262,100.907c11.639-18.577,22.835-38.118,33.621-58.479
				c-2.142-4.992-3.004-10.01-3.721-14.268c-0.367-2.185-0.896-5.35-1.476-6.707c-1.195-0.068-4.881,0.324-13.645,4.326
				c-11.554,5.342-18.065,7.322-23.629,4.07c-5.086-2.961-5.521-8.269-5.76-11.128c-0.171-1.98-0.247-3.004-0.956-3.772
				c-0.171,0.529-0.324,1.05-0.469,1.493c-1.562,5.094-3.695,12.066-10.803,14.336c-7.381,2.389-14.165-2.825-16.393-4.531
				c-7.339-5.658-10.035-13.099-12.203-19.081c-3.157-8.713-3.806-10.522-16.742-7.432c-23.27,5.564-33.852,6.733-39.125-0.435
				c-4.907-6.682-0.597-13.901,3.959-21.555c6.212-10.419,13.943-23.39,8.004-37.572c-1.715-4.053-6.306-14.916,0.742-21.76
				c8.115-7.885,21.47-1.801,39.953,6.613c1.331,0.606,2.799,1.28,4.344,1.971c-0.905-1.297-1.468-2.859-1.536-4.54
				c-0.981-23.962,11.87-47.3,30.558-55.501c12.672-5.564,25.745-2.927,35.866,7.202c3.678,3.729,6.118,2.918,7.151,2.568
				c5.316-1.783,11.947-10.718,13.414-22.033c0.734-5.598,0.606-15.881-8.414-21.82c-2.466-0.495-15.078,2.406-22.613,4.139
				c-9.651,2.227-19.891,4.659-27.034,4.48h-0.23c-16.375,0-29.244,9.839-42.863,20.25c-19.729,15.087-42.086,32.196-76.945,18.526
				c-3.046-1.195-5.137-4.019-5.393-7.279c-1.57-19.959,15.94-29.175,30.012-36.574c10.965-5.768,21.325-11.221,23.39-19.968
				L197.57,7.812C137.649,21.858,85.749,56.964,50.208,104.93l7.817,10.419C58.067,115.4,72.736,133.986,97.901,160.661z"/>
			<path d="M273.333,141.607c1.22-5.043,0.657-10.24-1.391-14.165c-0.811,1.314-1.647,2.773-2.321,3.951
				c-4.224,7.407-9.421,16.512-18.739,17.143c6.05,2.483,11.767,4.429,14.08,4.011C270.602,150.524,272.701,144.218,273.333,141.607
				z"/>
			<path d="M358.4,163.137c0,14.114,11.486,25.6,25.6,25.6s25.6-11.486,25.6-25.6c0-14.114-11.486-25.6-25.6-25.6
				S358.4,149.023,358.4,163.137z"/>
			<path d="M453.896,237.803c-3.379,2.321-6.05,20.898-7.057,27.896c-1.451,10.018-2.313,15.42-4.685,19.098
				c-9.788,15.189-23.663,23.262-40.132,23.364h-0.307c-22.98,0-45.559-15.13-60.348-31.991
				c-9.464,17.493-19.251,34.355-29.363,50.534c49.485,24.636,102.972,41.233,157.329,41.233h17.357
				c10.513-21.76,17.98-45.244,21.973-69.871l-39.859-46.165C458.282,238.17,453.939,237.803,453.896,237.803z"/>
			<path d="M427.597,67.205l-1.263,4.412c-0.222,0.836-6.11,22.195-18.466,56.175c11.332,7.68,18.799,20.659,18.799,35.345
				c0,23.526-19.14,42.667-42.667,42.667c-2.586,0-5.086-0.324-7.543-0.759c-8.457,18.825-17.246,37.069-26.368,54.69
				c11.844,15.804,32.777,31.36,51.635,31.36h0.196c10.718-0.068,19.191-5.146,25.89-15.548c0.555-1.306,1.468-7.646,2.133-12.279
				c2.586-17.946,5.513-38.281,19.891-42.018c12.715-3.311,24.465,9.771,32.205,19.891l29.252,33.877
				c0.418-5.956,0.708-11.955,0.708-18.014C512,181.799,479.395,114.079,427.597,67.205z"/>
			<path d="M182.446,69.437c-11.162,5.88-17.801,9.89-20.087,14.942c22.306,6.025,37.146-5.308,54.101-18.27
				c14.652-11.196,31.505-24.132,53.555-23.765h0.12c5.41,0,14.353-2.057,23.006-4.045c18.219-4.19,28.877-6.332,35.814-1.758
				c12.254,8.073,18.074,22.016,15.957,38.272c-2.21,17.015-12.45,31.821-24.9,36.011c-8.755,2.944-17.536,0.555-24.704-6.724
				c-5.129-5.137-10.667-6.323-16.896-3.593c-3.456,1.519-6.895,4.224-9.933,7.817c0.657-0.188,1.34-0.324,2.057-0.41
				c2.97-0.35,7.424,0.222,11.767,4.873c7.629,8.166,10.547,20.745,7.62,32.845c-2.679,11.042-9.933,19.661-19.396,23.04
				c-8.892,3.183-20.821-1.724-39.407-10.189c-5.197-2.364-12.851-5.854-18.142-7.612c0.077,0.196,0.162,0.401,0.247,0.606
				c9.267,22.144-2.21,41.412-9.079,52.924c-0.017,0.043-0.043,0.085-0.068,0.119c3.627-0.572,8.917-1.621,16.614-3.465
				c25.591-6.153,32.188,5.641,36.753,18.219c1.698,4.693,3.166,8.747,6.562,11.358c0.017,0.017,0.043,0.034,0.06,0.051
				c0.145-0.461,0.29-0.922,0.41-1.314c1.485-4.83,3.328-10.837,9.131-13.67c2.338-1.152,6.17-2.116,11.153-0.205
				c9.754,3.763,12.792,10.308,13.858,15.249c1.485-0.597,3.405-1.417,5.871-2.56c13.747-6.272,22.426-7.424,29.039-3.934
				c5.376,2.859,7.569,7.765,8.832,12.894c6.229-12.518,12.314-25.293,18.219-38.417c-11.571-7.637-19.243-20.719-19.243-35.593
				c0-23.518,19.14-42.667,42.667-42.667c2.765,0,5.453,0.316,8.073,0.819c11.947-32.913,17.766-54.05,17.826-54.263l3.371-11.793
				C369.838,21.301,315.258,1,256.003,1c-14.097,0-27.921,1.195-41.404,3.396l0.367,30.686c0,0.538-0.034,1.075-0.137,1.613
				C211.698,54.052,196.159,62.227,182.446,69.437z"/>
			<path d="M354.234,404.236l-49.98-0.205c-3.089-0.017-5.931-1.698-7.433-4.403l-13.969-25.259l-1.894-1.425
				c-5.265,7.287-10.607,14.404-16.017,21.35c5.06,7.014,8.124,15.556,8.124,24.841c0,23.526-19.14,42.667-42.667,42.667
				c-7.424,0-14.31-2.074-20.395-5.427c-13.867,13.653-28.151,26.359-42.59,37.734l-2.577,2.057
				c28.339,10.846,59.059,16.836,91.162,16.836c17.084,0,33.775-1.715,49.937-4.924l9.822-51.721
				c0.375-1.98,1.442-3.763,3.004-5.035l27.546-22.357L354.234,404.236z"/>
			<path d="M302.771,341.108c-3.942,6.05-7.919,12.049-11.955,17.894l3.738,2.799c0.964,0.725,1.766,1.647,2.347,2.705
				l12.433,22.477l56.619,0.23c2.722,0.017,5.274,1.323,6.869,3.516c1.604,2.21,2.057,5.035,1.22,7.62l-12.262,38.246
				c-0.503,1.579-1.451,2.978-2.739,4.019l-27.102,21.99l-7.808,41.122c65.289-18.057,120.158-61.355,153.429-118.724h-8.226
				C411.468,385.003,354.841,367.254,302.771,341.108z"/>
			<path d="M187.732,419.14c0-23.526,19.14-42.667,42.667-42.667c8.038,0,15.479,2.364,21.905,6.246
				c5.06-6.519,10.061-13.184,14.993-20.011l-26.189-19.627l-27.563,1.075c-0.947,0.026-1.963-0.085-2.901-0.375l-31.735-9.993
				c-0.811-0.256-1.579-0.631-2.278-1.118l-21.743-14.993l-51.738,11.955l-20.489,9.924l-41.677,56.115
				c25.899,40.021,62.609,72.388,106.018,92.902l9.805-7.834c13.611-10.726,27.051-22.656,40.132-35.456
				C191.265,438.042,187.732,429.039,187.732,419.14z"/>
			<path d="M93.866,197.27c0,14.114,11.486,25.6,25.6,25.6s25.6-11.486,25.6-25.6s-11.486-25.6-25.6-25.6
				S93.866,183.156,93.866,197.27z"/>
			<path d="M18.954,280.357c6.212-4.685,11.119-8.388,16.265-17.655c3.413-6.144,3.012-7.68,1.527-13.406
				c-1.476-5.675-3.507-13.457-2.577-27.273c0.853-12.911,0.461-16.23,0.051-19.755c-0.512-4.326-1.041-8.798-0.06-24.474
				c0.93-14.839-1.451-16.589-6.647-20.437l-5.444-4.147c-14.14,31.753-22.067,66.85-22.067,103.791
				c0,12.612,0.956,24.994,2.722,37.12c2.671-2.313,4.463-3.866,4.745-4.122C11.393,286.058,15.404,283.028,18.954,280.357z"/>
			<path d="M73.332,325.113l19.234-9.318c0.87-0.819,1.886-1.502,3.089-1.911l3.234-1.075c0.964-0.316,1.946-0.401,2.918-0.375
				l52.907-12.228c2.321-0.563,4.787-0.077,6.767,1.289l23.782,16.401l29.09,9.156l29.116-1.135c1.988-0.043,3.883,0.521,5.444,1.69
				l28.245,21.163c3.507-5.094,6.955-10.325,10.402-15.582c-54.195-29.363-102.886-67.14-142.114-102.315
				c-7.219,5.598-16.162,9.062-25.984,9.062c-23.526,0-42.667-19.14-42.667-42.667c0-9.455,3.2-18.116,8.431-25.199
				c-25.446-27.008-40.09-45.508-40.738-46.319l-4.454-5.948c-3.678,5.777-7.142,11.682-10.359,17.758l8.073,6.144
				c10.103,7.467,14.729,14.66,13.449,35.157c-0.887,14.14-0.452,17.835-0.034,21.41c0.495,4.139,0.998,8.414,0.026,22.886
				c-0.734,11.059,0.759,16.785,2.074,21.845c2.176,8.38,3.14,14.711-3.123,25.993c-6.903,12.416-14.02,17.783-20.907,22.98
				c-3.396,2.568-6.605,4.992-10.027,8.405c-0.162,0.171-5.359,4.676-12.843,11.153c5.316,23.475,13.815,45.756,25.114,66.313
				l38.724-52.139C71.029,326.598,72.095,325.71,73.332,325.113z"/>
		</g>
	</g>
</g>
<g>
</g>
<g>
</g>
<g>
</g>
<g>
</g>
<g>
</g>
<g>
</g>
<g>
</g>
<g>
</g>
<g>
</g>
<g>
</g>
<g>
</g>
<g>
</g>
<g>
</g>
<g>
</g>
<g>
</g>
</svg>
