<svg xmlns="http://www.w3.org/2000/svg" version="1.1" xmlns:xlink="http://www.w3.org/1999/xlink" xmlns:svgjs="http://svgjs.com/svgjs" width="1440" height="560" preserveAspectRatio="none" viewBox="0 0 1440 560"><g mask="url(&quot;#SvgjsMask1030&quot;)" fill="none"><rect width="1440" height="560" x="0" y="0" fill="rgba(41, 0, 40, 1)"></rect><path d="M-40.55 383.95L-40.55 383.95" stroke="rgba(109, 0, 106, 1)" stroke-width="1.5"></path><path d="M-40.55 383.95L64.48 375.53" stroke="rgba(109, 0, 106, 1)" stroke-width="1.5"></path><path d="M-40.55 383.95L-80.73 510.3" stroke="rgba(109, 0, 106, 1)" stroke-width="1.5"></path><path d="M-40.55 383.95L94.9 503.05" stroke="rgba(109, 0, 106, 1)" stroke-width="1.5"></path><path d="M-40.55 383.95L44.04 641.18" stroke="rgba(109, 0, 106, 1)" stroke-width="1.5"></path><path d="M-80.73 510.3L-80.73 510.3" stroke="rgba(109, 0, 106, 1)" stroke-width="1.5"></path><path d="M-80.73 510.3L94.9 503.05" stroke="rgba(109, 0, 106, 1)" stroke-width="1.5"></path><path d="M-80.73 510.3L44.04 641.18" stroke="rgba(109, 0, 106, 1)" stroke-width="1.5"></path><path d="M-54.59 699.32L-54.59 699.32" stroke="rgba(109, 0, 106, 1)" stroke-width="1.5"></path><path d="M-54.59 699.32L44.04 641.18" stroke="rgba(109, 0, 106, 1)" stroke-width="1.5"></path><path d="M-54.59 699.32L-80.73 510.3" stroke="rgba(109, 0, 106, 1)" stroke-width="1.5"></path><path d="M-54.59 699.32L94.9 503.05" stroke="rgba(109, 0, 106, 1)" stroke-width="1.5"></path><path d="M-54.59 699.32L239.68 654.05" stroke="rgba(109, 0, 106, 1)" stroke-width="1.5"></path><path d="M64.48 375.53L64.48 375.53" stroke="rgba(109, 0, 106, 1)" stroke-width="1.5"></path><path d="M64.48 375.53L94.9 503.05" stroke="rgba(109, 0, 106, 1)" stroke-width="1.5"></path><path d="M64.48 375.53L251.14 373.57" stroke="rgba(109, 0, 106, 1)" stroke-width="1.5"></path><path d="M64.48 375.53L-80.73 510.3" stroke="rgba(109, 0, 106, 1)" stroke-width="1.5"></path><path d="M64.48 375.53L252.35 548.28" stroke="rgba(109, 0, 106, 1)" stroke-width="1.5"></path><path d="M64.48 375.53L44.04 641.18" stroke="rgba(109, 0, 106, 1)" stroke-width="1.5"></path><path d="M94.9 503.05L94.9 503.05" stroke="rgba(109, 0, 106, 1)" stroke-width="1.5"></path><path d="M94.9 503.05L44.04 641.18" stroke="rgba(109, 0, 106, 1)" stroke-width="1.5"></path><path d="M94.9 503.05L252.35 548.28" stroke="rgba(109, 0, 106, 1)" stroke-width="1.5"></path><path d="M44.04 641.18L44.04 641.18" stroke="rgba(109, 0, 106, 1)" stroke-width="1.5"></path><path d="M251.14 373.57L251.14 373.57" stroke="rgba(109, 0, 106, 1)" stroke-width="1.5"></path><path d="M251.14 373.57L366.57 369.76" stroke="rgba(109, 0, 106, 1)" stroke-width="1.5"></path><path d="M251.14 373.57L252.35 548.28" stroke="rgba(109, 0, 106, 1)" stroke-width="1.5"></path><path d="M252.35 548.28L252.35 548.28" stroke="rgba(109, 0, 106, 1)" stroke-width="1.5"></path><path d="M252.35 548.28L239.68 654.05" stroke="rgba(109, 0, 106, 1)" stroke-width="1.5"></path><path d="M252.35 548.28L357.3 686.66" stroke="rgba(109, 0, 106, 1)" stroke-width="1.5"></path><path d="M252.35 548.28L366.57 369.76" stroke="rgba(109, 0, 106, 1)" stroke-width="1.5"></path><path d="M252.35 548.28L44.04 641.18" stroke="rgba(109, 0, 106, 1)" stroke-width="1.5"></path><path d="M239.68 654.05L239.68 654.05" stroke="rgba(109, 0, 106, 1)" stroke-width="1.5"></path><path d="M239.68 654.05L357.3 686.66" stroke="rgba(109, 0, 106, 1)" stroke-width="1.5"></path><path d="M239.68 654.05L44.04 641.18" stroke="rgba(109, 0, 106, 1)" stroke-width="1.5"></path><path d="M239.68 654.05L94.9 503.05" stroke="rgba(109, 0, 106, 1)" stroke-width="1.5"></path><path d="M239.68 654.05L251.14 373.57" stroke="rgba(109, 0, 106, 1)" stroke-width="1.5"></path><path d="M366.57 369.76L366.57 369.76" stroke="rgba(109, 0, 106, 1)" stroke-width="1.5"></path><path d="M357.3 686.66L357.3 686.66" stroke="rgba(109, 0, 106, 1)" stroke-width="1.5"></path><path d="M357.3 686.66L542.15 654.77" stroke="rgba(109, 0, 106, 1)" stroke-width="1.5"></path><path d="M552.03 350.02L552.03 350.02" stroke="rgba(109, 0, 106, 1)" stroke-width="1.5"></path><path d="M552.03 350.02L662.07 349.9" stroke="rgba(109, 0, 106, 1)" stroke-width="1.5"></path><path d="M552.03 350.02L515.74 521.45" stroke="rgba(109, 0, 106, 1)" stroke-width="1.5"></path><path d="M552.03 350.02L366.57 369.76" stroke="rgba(109, 0, 106, 1)" stroke-width="1.5"></path><path d="M552.03 350.02L708.83 233.93" stroke="rgba(109, 0, 106, 1)" stroke-width="1.5"></path><path d="M552.03 350.02L660.22 539.53" stroke="rgba(109, 0, 106, 1)" stroke-width="1.5"></path><path d="M515.74 521.45L515.74 521.45" stroke="rgba(109, 0, 106, 1)" stroke-width="1.5"></path><path d="M515.74 521.45L542.15 654.77" stroke="rgba(109, 0, 106, 1)" stroke-width="1.5"></path><path d="M515.74 521.45L660.22 539.53" stroke="rgba(109, 0, 106, 1)" stroke-width="1.5"></path><path d="M542.15 654.77L542.15 654.77" stroke="rgba(109, 0, 106, 1)" stroke-width="1.5"></path><path d="M542.15 654.77L653.58 667.26" stroke="rgba(109, 0, 106, 1)" stroke-width="1.5"></path><path d="M542.15 654.77L660.22 539.53" stroke="rgba(109, 0, 106, 1)" stroke-width="1.5"></path><path d="M708.83 233.93L708.83 233.93" stroke="rgba(109, 0, 106, 1)" stroke-width="1.5"></path><path d="M708.83 233.93L662.07 349.9" stroke="rgba(109, 0, 106, 1)" stroke-width="1.5"></path><path d="M662.07 349.9L662.07 349.9" stroke="rgba(109, 0, 106, 1)" stroke-width="1.5"></path><path d="M662.07 349.9L830.3 388.69" stroke="rgba(109, 0, 106, 1)" stroke-width="1.5"></path><path d="M662.07 349.9L660.22 539.53" stroke="rgba(109, 0, 106, 1)" stroke-width="1.5"></path><path d="M662.07 349.9L797.56 495.55" stroke="rgba(109, 0, 106, 1)" stroke-width="1.5"></path><path d="M662.07 349.9L849.95 232.11" stroke="rgba(109, 0, 106, 1)" stroke-width="1.5"></path><path d="M660.22 539.53L660.22 539.53" stroke="rgba(109, 0, 106, 1)" stroke-width="1.5"></path><path d="M660.22 539.53L653.58 667.26" stroke="rgba(109, 0, 106, 1)" stroke-width="1.5"></path><path d="M660.22 539.53L797.56 495.55" stroke="rgba(109, 0, 106, 1)" stroke-width="1.5"></path><path d="M653.58 667.26L653.58 667.26" stroke="rgba(109, 0, 106, 1)" stroke-width="1.5"></path><path d="M653.58 667.26L515.74 521.45" stroke="rgba(109, 0, 106, 1)" stroke-width="1.5"></path><path d="M653.58 667.26L797.56 495.55" stroke="rgba(109, 0, 106, 1)" stroke-width="1.5"></path><path d="M653.58 667.26L357.3 686.66" stroke="rgba(109, 0, 106, 1)" stroke-width="1.5"></path><path d="M849.95 232.11L849.95 232.11" stroke="rgba(109, 0, 106, 1)" stroke-width="1.5"></path><path d="M849.95 232.11L949.65 216.94" stroke="rgba(109, 0, 106, 1)" stroke-width="1.5"></path><path d="M849.95 232.11L708.83 233.93" stroke="rgba(109, 0, 106, 1)" stroke-width="1.5"></path><path d="M849.95 232.11L830.3 388.69" stroke="rgba(109, 0, 106, 1)" stroke-width="1.5"></path><path d="M849.95 232.11L999.21 111.03" stroke="rgba(109, 0, 106, 1)" stroke-width="1.5"></path><path d="M849.95 232.11L989.32 396.22" stroke="rgba(109, 0, 106, 1)" stroke-width="1.5"></path><path d="M830.3 388.69L830.3 388.69" stroke="rgba(109, 0, 106, 1)" stroke-width="1.5"></path><path d="M830.3 388.69L797.56 495.55" stroke="rgba(109, 0, 106, 1)" stroke-width="1.5"></path><path d="M830.3 388.69L989.32 396.22" stroke="rgba(109, 0, 106, 1)" stroke-width="1.5"></path><path d="M830.3 388.69L951.91 539.44" stroke="rgba(109, 0, 106, 1)" stroke-width="1.5"></path><path d="M830.3 388.69L708.83 233.93" stroke="rgba(109, 0, 106, 1)" stroke-width="1.5"></path><path d="M797.56 495.55L797.56 495.55" stroke="rgba(109, 0, 106, 1)" stroke-width="1.5"></path><path d="M797.56 495.55L951.91 539.44" stroke="rgba(109, 0, 106, 1)" stroke-width="1.5"></path><path d="M977.26 -39.47L977.26 -39.47" stroke="rgba(109, 0, 106, 1)" stroke-width="1.5"></path><path d="M977.26 -39.47L1110.49 -75.09" stroke="rgba(109, 0, 106, 1)" stroke-width="1.5"></path><path d="M977.26 -39.47L999.21 111.03" stroke="rgba(109, 0, 106, 1)" stroke-width="1.5"></path><path d="M999.21 111.03L999.21 111.03" stroke="rgba(109, 0, 106, 1)" stroke-width="1.5"></path><path d="M999.21 111.03L949.65 216.94" stroke="rgba(109, 0, 106, 1)" stroke-width="1.5"></path><path d="M999.21 111.03L1131.9 62.26" stroke="rgba(109, 0, 106, 1)" stroke-width="1.5"></path><path d="M999.21 111.03L1117.6 253.41" stroke="rgba(109, 0, 106, 1)" stroke-width="1.5"></path><path d="M949.65 216.94L949.65 216.94" stroke="rgba(109, 0, 106, 1)" stroke-width="1.5"></path><path d="M949.65 216.94L1117.6 253.41" stroke="rgba(109, 0, 106, 1)" stroke-width="1.5"></path><path d="M949.65 216.94L989.32 396.22" stroke="rgba(109, 0, 106, 1)" stroke-width="1.5"></path><path d="M949.65 216.94L830.3 388.69" stroke="rgba(109, 0, 106, 1)" stroke-width="1.5"></path><path d="M989.32 396.22L989.32 396.22" stroke="rgba(109, 0, 106, 1)" stroke-width="1.5"></path><path d="M989.32 396.22L951.91 539.44" stroke="rgba(109, 0, 106, 1)" stroke-width="1.5"></path><path d="M989.32 396.22L1148.88 392.59" stroke="rgba(109, 0, 106, 1)" stroke-width="1.5"></path><path d="M951.91 539.44L951.91 539.44" stroke="rgba(109, 0, 106, 1)" stroke-width="1.5"></path><path d="M951.91 539.44L985.85 683.79" stroke="rgba(109, 0, 106, 1)" stroke-width="1.5"></path><path d="M985.85 683.79L985.85 683.79" stroke="rgba(109, 0, 106, 1)" stroke-width="1.5"></path><path d="M985.85 683.79L1117.95 689.57" stroke="rgba(109, 0, 106, 1)" stroke-width="1.5"></path><path d="M985.85 683.79L1139.81 540.1" stroke="rgba(109, 0, 106, 1)" stroke-width="1.5"></path><path d="M985.85 683.79L797.56 495.55" stroke="rgba(109, 0, 106, 1)" stroke-width="1.5"></path><path d="M985.85 683.79L989.32 396.22" stroke="rgba(109, 0, 106, 1)" stroke-width="1.5"></path><path d="M985.85 683.79L1307.81 651.99" stroke="rgba(109, 0, 106, 1)" stroke-width="1.5"></path><path d="M1110.49 -75.09L1110.49 -75.09" stroke="rgba(109, 0, 106, 1)" stroke-width="1.5"></path><path d="M1110.49 -75.09L1131.9 62.26" stroke="rgba(109, 0, 106, 1)" stroke-width="1.5"></path><path d="M1131.9 62.26L1131.9 62.26" stroke="rgba(109, 0, 106, 1)" stroke-width="1.5"></path><path d="M1131.9 62.26L1249.96 -56.88" stroke="rgba(109, 0, 106, 1)" stroke-width="1.5"></path><path d="M1131.9 62.26L977.26 -39.47" stroke="rgba(109, 0, 106, 1)" stroke-width="1.5"></path><path d="M1131.9 62.26L1117.6 253.41" stroke="rgba(109, 0, 106, 1)" stroke-width="1.5"></path><path d="M1131.9 62.26L1259.26 255.93" stroke="rgba(109, 0, 106, 1)" stroke-width="1.5"></path><path d="M1117.6 253.41L1117.6 253.41" stroke="rgba(109, 0, 106, 1)" stroke-width="1.5"></path><path d="M1117.6 253.41L1259.26 255.93" stroke="rgba(109, 0, 106, 1)" stroke-width="1.5"></path><path d="M1117.6 253.41L1148.88 392.59" stroke="rgba(109, 0, 106, 1)" stroke-width="1.5"></path><path d="M1148.88 392.59L1148.88 392.59" stroke="rgba(109, 0, 106, 1)" stroke-width="1.5"></path><path d="M1148.88 392.59L1289.71 402.6" stroke="rgba(109, 0, 106, 1)" stroke-width="1.5"></path><path d="M1148.88 392.59L1139.81 540.1" stroke="rgba(109, 0, 106, 1)" stroke-width="1.5"></path><path d="M1148.88 392.59L1259.26 255.93" stroke="rgba(109, 0, 106, 1)" stroke-width="1.5"></path><path d="M1148.88 392.59L1296.48 556.95" stroke="rgba(109, 0, 106, 1)" stroke-width="1.5"></path><path d="M1139.81 540.1L1139.81 540.1" stroke="rgba(109, 0, 106, 1)" stroke-width="1.5"></path><path d="M1139.81 540.1L1117.95 689.57" stroke="rgba(109, 0, 106, 1)" stroke-width="1.5"></path><path d="M1139.81 540.1L1296.48 556.95" stroke="rgba(109, 0, 106, 1)" stroke-width="1.5"></path><path d="M1139.81 540.1L951.91 539.44" stroke="rgba(109, 0, 106, 1)" stroke-width="1.5"></path><path d="M1139.81 540.1L1307.81 651.99" stroke="rgba(109, 0, 106, 1)" stroke-width="1.5"></path><path d="M1117.95 689.57L1117.95 689.57" stroke="rgba(109, 0, 106, 1)" stroke-width="1.5"></path><path d="M1117.95 689.57L1307.81 651.99" stroke="rgba(109, 0, 106, 1)" stroke-width="1.5"></path><path d="M1117.95 689.57L1296.48 556.95" stroke="rgba(109, 0, 106, 1)" stroke-width="1.5"></path><path d="M1117.95 689.57L951.91 539.44" stroke="rgba(109, 0, 106, 1)" stroke-width="1.5"></path><path d="M1117.95 689.57L1148.88 392.59" stroke="rgba(109, 0, 106, 1)" stroke-width="1.5"></path><path d="M1249.96 -56.88L1249.96 -56.88" stroke="rgba(109, 0, 106, 1)" stroke-width="1.5"></path><path d="M1249.96 -56.88L1110.49 -75.09" stroke="rgba(109, 0, 106, 1)" stroke-width="1.5"></path><path d="M1249.96 -56.88L1421.36 -40.88" stroke="rgba(109, 0, 106, 1)" stroke-width="1.5"></path><path d="M1259.26 255.93L1259.26 255.93" stroke="rgba(109, 0, 106, 1)" stroke-width="1.5"></path><path d="M1259.26 255.93L1289.71 402.6" stroke="rgba(109, 0, 106, 1)" stroke-width="1.5"></path><path d="M1259.26 255.93L1413.07 344.14" stroke="rgba(109, 0, 106, 1)" stroke-width="1.5"></path><path d="M1289.71 402.6L1289.71 402.6" stroke="rgba(109, 0, 106, 1)" stroke-width="1.5"></path><path d="M1289.71 402.6L1413.07 344.14" stroke="rgba(109, 0, 106, 1)" stroke-width="1.5"></path><path d="M1289.71 402.6L1296.48 556.95" stroke="rgba(109, 0, 106, 1)" stroke-width="1.5"></path><path d="M1289.71 402.6L1450.07 516.59" stroke="rgba(109, 0, 106, 1)" stroke-width="1.5"></path><path d="M1296.48 556.95L1296.48 556.95" stroke="rgba(109, 0, 106, 1)" stroke-width="1.5"></path><path d="M1296.48 556.95L1307.81 651.99" stroke="rgba(109, 0, 106, 1)" stroke-width="1.5"></path><path d="M1296.48 556.95L1450.07 516.59" stroke="rgba(109, 0, 106, 1)" stroke-width="1.5"></path><path d="M1296.48 556.95L1422.69 711.44" stroke="rgba(109, 0, 106, 1)" stroke-width="1.5"></path><path d="M1307.81 651.99L1307.81 651.99" stroke="rgba(109, 0, 106, 1)" stroke-width="1.5"></path><path d="M1307.81 651.99L1422.69 711.44" stroke="rgba(109, 0, 106, 1)" stroke-width="1.5"></path><path d="M1307.81 651.99L1450.07 516.59" stroke="rgba(109, 0, 106, 1)" stroke-width="1.5"></path><path d="M1421.36 -40.88L1421.36 -40.88" stroke="rgba(109, 0, 106, 1)" stroke-width="1.5"></path><path d="M1421.36 -40.88L1458.92 39.95" stroke="rgba(109, 0, 106, 1)" stroke-width="1.5"></path><path d="M1421.36 -40.88L1570.11 -67.43" stroke="rgba(109, 0, 106, 1)" stroke-width="1.5"></path><path d="M1421.36 -40.88L1556.39 61.81" stroke="rgba(109, 0, 106, 1)" stroke-width="1.5"></path><path d="M1421.36 -40.88L1131.9 62.26" stroke="rgba(109, 0, 106, 1)" stroke-width="1.5"></path><path d="M1458.92 39.95L1458.92 39.95" stroke="rgba(109, 0, 106, 1)" stroke-width="1.5"></path><path d="M1458.92 39.95L1556.39 61.81" stroke="rgba(109, 0, 106, 1)" stroke-width="1.5"></path><path d="M1458.92 39.95L1570.11 -67.43" stroke="rgba(109, 0, 106, 1)" stroke-width="1.5"></path><path d="M1458.92 39.95L1563.73 232.59" stroke="rgba(109, 0, 106, 1)" stroke-width="1.5"></path><path d="M1458.92 39.95L1249.96 -56.88" stroke="rgba(109, 0, 106, 1)" stroke-width="1.5"></path><path d="M1458.92 39.95L1259.26 255.93" stroke="rgba(109, 0, 106, 1)" stroke-width="1.5"></path><path d="M1413.07 344.14L1413.07 344.14" stroke="rgba(109, 0, 106, 1)" stroke-width="1.5"></path><path d="M1413.07 344.14L1544.14 382.09" stroke="rgba(109, 0, 106, 1)" stroke-width="1.5"></path><path d="M1413.07 344.14L1450.07 516.59" stroke="rgba(109, 0, 106, 1)" stroke-width="1.5"></path><path d="M1413.07 344.14L1563.73 232.59" stroke="rgba(109, 0, 106, 1)" stroke-width="1.5"></path><path d="M1413.07 344.14L1538.31 511.11" stroke="rgba(109, 0, 106, 1)" stroke-width="1.5"></path><path d="M1450.07 516.59L1450.07 516.59" stroke="rgba(109, 0, 106, 1)" stroke-width="1.5"></path><path d="M1450.07 516.59L1538.31 511.11" stroke="rgba(109, 0, 106, 1)" stroke-width="1.5"></path><path d="M1422.69 711.44L1422.69 711.44" stroke="rgba(109, 0, 106, 1)" stroke-width="1.5"></path><path d="M1422.69 711.44L1561.34 709.69" stroke="rgba(109, 0, 106, 1)" stroke-width="1.5"></path><path d="M1570.11 -67.43L1570.11 -67.43" stroke="rgba(109, 0, 106, 1)" stroke-width="1.5"></path><path d="M1570.11 -67.43L1556.39 61.81" stroke="rgba(109, 0, 106, 1)" stroke-width="1.5"></path><path d="M1570.11 -67.43L1563.73 232.59" stroke="rgba(109, 0, 106, 1)" stroke-width="1.5"></path><path d="M1570.11 -67.43L1249.96 -56.88" stroke="rgba(109, 0, 106, 1)" stroke-width="1.5"></path><path d="M1556.39 61.81L1556.39 61.81" stroke="rgba(109, 0, 106, 1)" stroke-width="1.5"></path><path d="M1563.73 232.59L1563.73 232.59" stroke="rgba(109, 0, 106, 1)" stroke-width="1.5"></path><path d="M1563.73 232.59L1544.14 382.09" stroke="rgba(109, 0, 106, 1)" stroke-width="1.5"></path><path d="M1563.73 232.59L1556.39 61.81" stroke="rgba(109, 0, 106, 1)" stroke-width="1.5"></path><path d="M1544.14 382.09L1544.14 382.09" stroke="rgba(109, 0, 106, 1)" stroke-width="1.5"></path><path d="M1544.14 382.09L1538.31 511.11" stroke="rgba(109, 0, 106, 1)" stroke-width="1.5"></path><path d="M1544.14 382.09L1450.07 516.59" stroke="rgba(109, 0, 106, 1)" stroke-width="1.5"></path><path d="M1538.31 511.11L1538.31 511.11" stroke="rgba(109, 0, 106, 1)" stroke-width="1.5"></path><path d="M1538.31 511.11L1561.34 709.69" stroke="rgba(109, 0, 106, 1)" stroke-width="1.5"></path><path d="M1538.31 511.11L1422.69 711.44" stroke="rgba(109, 0, 106, 1)" stroke-width="1.5"></path><path d="M1561.34 709.69L1561.34 709.69" stroke="rgba(109, 0, 106, 1)" stroke-width="1.5"></path><path d="M1561.34 709.69L1450.07 516.59" stroke="rgba(109, 0, 106, 1)" stroke-width="1.5"></path><path d="M1561.34 709.69L1307.81 651.99" stroke="rgba(109, 0, 106, 1)" stroke-width="1.5"></path><path d="M1561.34 709.69L1296.48 556.95" stroke="rgba(109, 0, 106, 1)" stroke-width="1.5"></path><path d="M1561.34 709.69L1544.14 382.09" stroke="rgba(109, 0, 106, 1)" stroke-width="1.5"></path><circle r="5" cx="-40.55" cy="383.95" fill="rgba(109, 0, 106, 1)"></circle><circle r="5" cx="-80.73" cy="510.3" fill="rgba(109, 0, 106, 1)"></circle><circle r="5" cx="-54.59" cy="699.32" fill="rgba(109, 0, 106, 1)"></circle><circle r="5" cx="64.48" cy="375.53" fill="rgba(109, 0, 106, 1)"></circle><circle r="5" cx="94.9" cy="503.05" fill="rgba(109, 0, 106, 1)"></circle><circle r="5" cx="44.04" cy="641.18" fill="rgba(109, 0, 106, 1)"></circle><circle r="5" cx="251.14" cy="373.57" fill="rgba(109, 0, 106, 1)"></circle><circle r="5" cx="252.35" cy="548.28" fill="rgba(109, 0, 106, 1)"></circle><circle r="5" cx="239.68" cy="654.05" fill="rgba(109, 0, 106, 1)"></circle><circle r="5" cx="366.57" cy="369.76" fill="rgba(109, 0, 106, 1)"></circle><circle r="5" cx="357.3" cy="686.66" fill="rgba(109, 0, 106, 1)"></circle><circle r="5" cx="552.03" cy="350.02" fill="rgba(109, 0, 106, 1)"></circle><circle r="5" cx="515.74" cy="521.45" fill="rgba(109, 0, 106, 1)"></circle><circle r="5" cx="542.15" cy="654.77" fill="rgba(109, 0, 106, 1)"></circle><circle r="5" cx="708.83" cy="233.93" fill="rgba(109, 0, 106, 1)"></circle><circle r="5" cx="662.07" cy="349.9" fill="rgba(109, 0, 106, 1)"></circle><circle r="5" cx="660.22" cy="539.53" fill="rgba(109, 0, 106, 1)"></circle><circle r="5" cx="653.58" cy="667.26" fill="rgba(109, 0, 106, 1)"></circle><circle r="5" cx="849.95" cy="232.11" fill="rgba(109, 0, 106, 1)"></circle><circle r="5" cx="830.3" cy="388.69" fill="rgba(109, 0, 106, 1)"></circle><circle r="5" cx="797.56" cy="495.55" fill="rgba(109, 0, 106, 1)"></circle><circle r="5" cx="977.26" cy="-39.47" fill="rgba(109, 0, 106, 1)"></circle><circle r="5" cx="999.21" cy="111.03" fill="rgba(109, 0, 106, 1)"></circle><circle r="5" cx="949.65" cy="216.94" fill="rgba(109, 0, 106, 1)"></circle><circle r="5" cx="989.32" cy="396.22" fill="rgba(109, 0, 106, 1)"></circle><circle r="5" cx="951.91" cy="539.44" fill="rgba(109, 0, 106, 1)"></circle><circle r="5" cx="985.85" cy="683.79" fill="rgba(109, 0, 106, 1)"></circle><circle r="5" cx="1110.49" cy="-75.09" fill="rgba(109, 0, 106, 1)"></circle><circle r="5" cx="1131.9" cy="62.26" fill="rgba(109, 0, 106, 1)"></circle><circle r="5" cx="1117.6" cy="253.41" fill="rgba(109, 0, 106, 1)"></circle><circle r="5" cx="1148.88" cy="392.59" fill="rgba(109, 0, 106, 1)"></circle><circle r="5" cx="1139.81" cy="540.1" fill="rgba(109, 0, 106, 1)"></circle><circle r="5" cx="1117.95" cy="689.57" fill="rgba(109, 0, 106, 1)"></circle><circle r="5" cx="1249.96" cy="-56.88" fill="rgba(109, 0, 106, 1)"></circle><circle r="5" cx="1259.26" cy="255.93" fill="rgba(109, 0, 106, 1)"></circle><circle r="5" cx="1289.71" cy="402.6" fill="rgba(109, 0, 106, 1)"></circle><circle r="5" cx="1296.48" cy="556.95" fill="rgba(109, 0, 106, 1)"></circle><circle r="5" cx="1307.81" cy="651.99" fill="rgba(109, 0, 106, 1)"></circle><circle r="5" cx="1421.36" cy="-40.88" fill="rgba(109, 0, 106, 1)"></circle><circle r="5" cx="1458.92" cy="39.95" fill="rgba(109, 0, 106, 1)"></circle><circle r="5" cx="1413.07" cy="344.14" fill="rgba(109, 0, 106, 1)"></circle><circle r="5" cx="1450.07" cy="516.59" fill="rgba(109, 0, 106, 1)"></circle><circle r="5" cx="1422.69" cy="711.44" fill="rgba(109, 0, 106, 1)"></circle><circle r="5" cx="1570.11" cy="-67.43" fill="rgba(109, 0, 106, 1)"></circle><circle r="5" cx="1556.39" cy="61.81" fill="rgba(109, 0, 106, 1)"></circle><circle r="5" cx="1563.73" cy="232.59" fill="rgba(109, 0, 106, 1)"></circle><circle r="5" cx="1544.14" cy="382.09" fill="rgba(109, 0, 106, 1)"></circle><circle r="5" cx="1538.31" cy="511.11" fill="rgba(109, 0, 106, 1)"></circle><circle r="5" cx="1561.34" cy="709.69" fill="rgba(109, 0, 106, 1)"></circle><path d="M-46.96 503.34L-46.96 503.34" stroke="hsl(301.29999999999995, 100%, 34.7%)" stroke-width="1.5"></path><path d="M-46.96 503.34L62.79 536.93" stroke="hsl(301.29999999999995, 100%, 34.7%)" stroke-width="1.5"></path><path d="M-46.96 503.34L-90.04 641.97" stroke="hsl(301.29999999999995, 100%, 34.7%)" stroke-width="1.5"></path><path d="M-46.96 503.34L206.84 501.53" stroke="hsl(301.29999999999995, 100%, 34.7%)" stroke-width="1.5"></path><path d="M-90.04 641.97L-90.04 641.97" stroke="hsl(301.29999999999995, 100%, 34.7%)" stroke-width="1.5"></path><path d="M-90.04 641.97L62.79 536.93" stroke="hsl(301.29999999999995, 100%, 34.7%)" stroke-width="1.5"></path><path d="M-90.04 641.97L221.95 687.7" stroke="hsl(301.29999999999995, 100%, 34.7%)" stroke-width="1.5"></path><path d="M352.43 518.97L352.43 518.97" stroke="hsl(301.29999999999995, 100%, 34.7%)" stroke-width="1.5"></path><path d="M352.43 518.97L206.84 501.53" stroke="hsl(301.29999999999995, 100%, 34.7%)" stroke-width="1.5"></path><path d="M352.43 518.97L529.05 547.03" stroke="hsl(301.29999999999995, 100%, 34.7%)" stroke-width="1.5"></path><path d="M352.43 518.97L339.56 706.35" stroke="hsl(301.29999999999995, 100%, 34.7%)" stroke-width="1.5"></path><path d="M352.43 518.97L221.95 687.7" stroke="hsl(301.29999999999995, 100%, 34.7%)" stroke-width="1.5"></path><path d="M352.43 518.97L526.88 659.95" stroke="hsl(301.29999999999995, 100%, 34.7%)" stroke-width="1.5"></path><path d="M352.43 518.97L550.6 396.17" stroke="hsl(301.29999999999995, 100%, 34.7%)" stroke-width="1.5"></path><path d="M550.6 396.17L550.6 396.17" stroke="hsl(301.29999999999995, 100%, 34.7%)" stroke-width="1.5"></path><path d="M550.6 396.17L529.05 547.03" stroke="hsl(301.29999999999995, 100%, 34.7%)" stroke-width="1.5"></path><path d="M550.6 396.17L702.63 562.19" stroke="hsl(301.29999999999995, 100%, 34.7%)" stroke-width="1.5"></path><path d="M550.6 396.17L526.88 659.95" stroke="hsl(301.29999999999995, 100%, 34.7%)" stroke-width="1.5"></path><path d="M550.6 396.17L822.99 342.78" stroke="hsl(301.29999999999995, 100%, 34.7%)" stroke-width="1.5"></path><path d="M529.05 547.03L529.05 547.03" stroke="hsl(301.29999999999995, 100%, 34.7%)" stroke-width="1.5"></path><path d="M529.05 547.03L526.88 659.95" stroke="hsl(301.29999999999995, 100%, 34.7%)" stroke-width="1.5"></path><path d="M810.21 703.68L810.21 703.68" stroke="hsl(301.29999999999995, 100%, 34.7%)" stroke-width="1.5"></path><path d="M810.21 703.68L671.8 669.46" stroke="hsl(301.29999999999995, 100%, 34.7%)" stroke-width="1.5"></path><path d="M990.51 232.34L990.51 232.34" stroke="hsl(301.29999999999995, 100%, 34.7%)" stroke-width="1.5"></path><path d="M990.51 232.34L1120.57 253.49" stroke="hsl(301.29999999999995, 100%, 34.7%)" stroke-width="1.5"></path><path d="M990.51 232.34L1130.73 99.28" stroke="hsl(301.29999999999995, 100%, 34.7%)" stroke-width="1.5"></path><path d="M990.51 232.34L822.99 342.78" stroke="hsl(301.29999999999995, 100%, 34.7%)" stroke-width="1.5"></path><path d="M990.51 232.34L1147.24 409.85" stroke="hsl(301.29999999999995, 100%, 34.7%)" stroke-width="1.5"></path><path d="M976.16 658.02L976.16 658.02" stroke="hsl(301.29999999999995, 100%, 34.7%)" stroke-width="1.5"></path><path d="M976.16 658.02L989.08 509.47" stroke="hsl(301.29999999999995, 100%, 34.7%)" stroke-width="1.5"></path><path d="M976.16 658.02L810.21 703.68" stroke="hsl(301.29999999999995, 100%, 34.7%)" stroke-width="1.5"></path><path d="M976.16 658.02L1112.61 549.88" stroke="hsl(301.29999999999995, 100%, 34.7%)" stroke-width="1.5"></path><path d="M976.16 658.02L1159.83 670.04" stroke="hsl(301.29999999999995, 100%, 34.7%)" stroke-width="1.5"></path><path d="M976.16 658.02L838.56 529.95" stroke="hsl(301.29999999999995, 100%, 34.7%)" stroke-width="1.5"></path><path d="M976.16 658.02L702.63 562.19" stroke="hsl(301.29999999999995, 100%, 34.7%)" stroke-width="1.5"></path><path d="M1285.82 63.79L1285.82 63.79" stroke="hsl(301.29999999999995, 100%, 34.7%)" stroke-width="1.5"></path><path d="M1285.82 63.79L1395.74 99.27" stroke="hsl(301.29999999999995, 100%, 34.7%)" stroke-width="1.5"></path><path d="M1285.82 63.79L1257.32 -87.27" stroke="hsl(301.29999999999995, 100%, 34.7%)" stroke-width="1.5"></path><path d="M1296.55 252.16L1296.55 252.16" stroke="hsl(301.29999999999995, 100%, 34.7%)" stroke-width="1.5"></path><path d="M1296.55 252.16L1277.18 337.99" stroke="hsl(301.29999999999995, 100%, 34.7%)" stroke-width="1.5"></path><path d="M1296.55 252.16L1401.45 196.96" stroke="hsl(301.29999999999995, 100%, 34.7%)" stroke-width="1.5"></path><path d="M1296.55 252.16L1120.57 253.49" stroke="hsl(301.29999999999995, 100%, 34.7%)" stroke-width="1.5"></path><path d="M1401.45 196.96L1401.45 196.96" stroke="hsl(301.29999999999995, 100%, 34.7%)" stroke-width="1.5"></path><path d="M1401.45 196.96L1395.74 99.27" stroke="hsl(301.29999999999995, 100%, 34.7%)" stroke-width="1.5"></path><path d="M1538.82 213.61L1538.82 213.61" stroke="hsl(301.29999999999995, 100%, 34.7%)" stroke-width="1.5"></path><path d="M1538.82 213.61L1401.45 196.96" stroke="hsl(301.29999999999995, 100%, 34.7%)" stroke-width="1.5"></path><path d="M1538.82 213.61L1585.17 82.97" stroke="hsl(301.29999999999995, 100%, 34.7%)" stroke-width="1.5"></path><path d="M1561 362.38L1561 362.38" stroke="hsl(301.29999999999995, 100%, 34.7%)" stroke-width="1.5"></path><path d="M1561 362.38L1552.96 505.21" stroke="hsl(301.29999999999995, 100%, 34.7%)" stroke-width="1.5"></path><path d="M1561 362.38L1420.49 399.43" stroke="hsl(301.29999999999995, 100%, 34.7%)" stroke-width="1.5"></path><path d="M1561 362.38L1538.82 213.61" stroke="hsl(301.29999999999995, 100%, 34.7%)" stroke-width="1.5"></path><path d="M1561 362.38L1431.44 523.15" stroke="hsl(301.29999999999995, 100%, 34.7%)" stroke-width="1.5"></path><path d="M1561 362.38L1401.45 196.96" stroke="hsl(301.29999999999995, 100%, 34.7%)" stroke-width="1.5"></path><path d="M1561 362.38L1585.17 82.97" stroke="hsl(301.29999999999995, 100%, 34.7%)" stroke-width="1.5"></path><path d="M62.79 536.93L62.79 536.93" stroke="hsl(301.29999999999995, 100%, 34.7%)" stroke-width="1.5"></path><path d="M62.79 536.93L206.84 501.53" stroke="hsl(301.29999999999995, 100%, 34.7%)" stroke-width="1.5"></path><path d="M62.79 536.93L221.95 687.7" stroke="hsl(301.29999999999995, 100%, 34.7%)" stroke-width="1.5"></path><path d="M62.79 536.93L352.43 518.97" stroke="hsl(301.29999999999995, 100%, 34.7%)" stroke-width="1.5"></path><path d="M62.79 536.93L339.56 706.35" stroke="hsl(301.29999999999995, 100%, 34.7%)" stroke-width="1.5"></path><path d="M206.84 501.53L206.84 501.53" stroke="hsl(301.29999999999995, 100%, 34.7%)" stroke-width="1.5"></path><path d="M206.84 501.53L221.95 687.7" stroke="hsl(301.29999999999995, 100%, 34.7%)" stroke-width="1.5"></path><path d="M206.84 501.53L339.56 706.35" stroke="hsl(301.29999999999995, 100%, 34.7%)" stroke-width="1.5"></path><path d="M206.84 501.53L529.05 547.03" stroke="hsl(301.29999999999995, 100%, 34.7%)" stroke-width="1.5"></path><path d="M221.95 687.7L221.95 687.7" stroke="hsl(301.29999999999995, 100%, 34.7%)" stroke-width="1.5"></path><path d="M221.95 687.7L339.56 706.35" stroke="hsl(301.29999999999995, 100%, 34.7%)" stroke-width="1.5"></path><path d="M221.95 687.7L526.88 659.95" stroke="hsl(301.29999999999995, 100%, 34.7%)" stroke-width="1.5"></path><path d="M339.56 706.35L339.56 706.35" stroke="hsl(301.29999999999995, 100%, 34.7%)" stroke-width="1.5"></path><path d="M339.56 706.35L526.88 659.95" stroke="hsl(301.29999999999995, 100%, 34.7%)" stroke-width="1.5"></path><path d="M339.56 706.35L529.05 547.03" stroke="hsl(301.29999999999995, 100%, 34.7%)" stroke-width="1.5"></path><path d="M526.88 659.95L526.88 659.95" stroke="hsl(301.29999999999995, 100%, 34.7%)" stroke-width="1.5"></path><path d="M526.88 659.95L671.8 669.46" stroke="hsl(301.29999999999995, 100%, 34.7%)" stroke-width="1.5"></path><path d="M702.63 562.19L702.63 562.19" stroke="hsl(301.29999999999995, 100%, 34.7%)" stroke-width="1.5"></path><path d="M702.63 562.19L671.8 669.46" stroke="hsl(301.29999999999995, 100%, 34.7%)" stroke-width="1.5"></path><path d="M702.63 562.19L838.56 529.95" stroke="hsl(301.29999999999995, 100%, 34.7%)" stroke-width="1.5"></path><path d="M671.8 669.46L671.8 669.46" stroke="hsl(301.29999999999995, 100%, 34.7%)" stroke-width="1.5"></path><path d="M822.99 342.78L822.99 342.78" stroke="hsl(301.29999999999995, 100%, 34.7%)" stroke-width="1.5"></path><path d="M822.99 342.78L838.56 529.95" stroke="hsl(301.29999999999995, 100%, 34.7%)" stroke-width="1.5"></path><path d="M822.99 342.78L989.08 509.47" stroke="hsl(301.29999999999995, 100%, 34.7%)" stroke-width="1.5"></path><path d="M822.99 342.78L702.63 562.19" stroke="hsl(301.29999999999995, 100%, 34.7%)" stroke-width="1.5"></path><path d="M838.56 529.95L838.56 529.95" stroke="hsl(301.29999999999995, 100%, 34.7%)" stroke-width="1.5"></path><path d="M838.56 529.95L989.08 509.47" stroke="hsl(301.29999999999995, 100%, 34.7%)" stroke-width="1.5"></path><path d="M838.56 529.95L810.21 703.68" stroke="hsl(301.29999999999995, 100%, 34.7%)" stroke-width="1.5"></path><path d="M989.08 509.47L989.08 509.47" stroke="hsl(301.29999999999995, 100%, 34.7%)" stroke-width="1.5"></path><path d="M989.08 509.47L1112.61 549.88" stroke="hsl(301.29999999999995, 100%, 34.7%)" stroke-width="1.5"></path><path d="M989.08 509.47L1147.24 409.85" stroke="hsl(301.29999999999995, 100%, 34.7%)" stroke-width="1.5"></path><path d="M1130.73 99.28L1130.73 99.28" stroke="hsl(301.29999999999995, 100%, 34.7%)" stroke-width="1.5"></path><path d="M1130.73 99.28L1120.57 253.49" stroke="hsl(301.29999999999995, 100%, 34.7%)" stroke-width="1.5"></path><path d="M1130.73 99.28L1285.82 63.79" stroke="hsl(301.29999999999995, 100%, 34.7%)" stroke-width="1.5"></path><path d="M1130.73 99.28L1257.32 -87.27" stroke="hsl(301.29999999999995, 100%, 34.7%)" stroke-width="1.5"></path><path d="M1130.73 99.28L1296.55 252.16" stroke="hsl(301.29999999999995, 100%, 34.7%)" stroke-width="1.5"></path><path d="M1120.57 253.49L1120.57 253.49" stroke="hsl(301.29999999999995, 100%, 34.7%)" stroke-width="1.5"></path><path d="M1120.57 253.49L1147.24 409.85" stroke="hsl(301.29999999999995, 100%, 34.7%)" stroke-width="1.5"></path><path d="M1147.24 409.85L1147.24 409.85" stroke="hsl(301.29999999999995, 100%, 34.7%)" stroke-width="1.5"></path><path d="M1147.24 409.85L1112.61 549.88" stroke="hsl(301.29999999999995, 100%, 34.7%)" stroke-width="1.5"></path><path d="M1147.24 409.85L1277.18 337.99" stroke="hsl(301.29999999999995, 100%, 34.7%)" stroke-width="1.5"></path><path d="M1112.61 549.88L1112.61 549.88" stroke="hsl(301.29999999999995, 100%, 34.7%)" stroke-width="1.5"></path><path d="M1112.61 549.88L1159.83 670.04" stroke="hsl(301.29999999999995, 100%, 34.7%)" stroke-width="1.5"></path><path d="M1112.61 549.88L1291.22 562.17" stroke="hsl(301.29999999999995, 100%, 34.7%)" stroke-width="1.5"></path><path d="M1159.83 670.04L1159.83 670.04" stroke="hsl(301.29999999999995, 100%, 34.7%)" stroke-width="1.5"></path><path d="M1159.83 670.04L1276.58 681.24" stroke="hsl(301.29999999999995, 100%, 34.7%)" stroke-width="1.5"></path><path d="M1159.83 670.04L1291.22 562.17" stroke="hsl(301.29999999999995, 100%, 34.7%)" stroke-width="1.5"></path><path d="M1257.32 -87.27L1257.32 -87.27" stroke="hsl(301.29999999999995, 100%, 34.7%)" stroke-width="1.5"></path><path d="M1257.32 -87.27L1443.47 -105.52" stroke="hsl(301.29999999999995, 100%, 34.7%)" stroke-width="1.5"></path><path d="M1277.18 337.99L1277.18 337.99" stroke="hsl(301.29999999999995, 100%, 34.7%)" stroke-width="1.5"></path><path d="M1277.18 337.99L1420.49 399.43" stroke="hsl(301.29999999999995, 100%, 34.7%)" stroke-width="1.5"></path><path d="M1277.18 337.99L1120.57 253.49" stroke="hsl(301.29999999999995, 100%, 34.7%)" stroke-width="1.5"></path><path d="M1277.18 337.99L1401.45 196.96" stroke="hsl(301.29999999999995, 100%, 34.7%)" stroke-width="1.5"></path><path d="M1277.18 337.99L1291.22 562.17" stroke="hsl(301.29999999999995, 100%, 34.7%)" stroke-width="1.5"></path><path d="M1291.22 562.17L1291.22 562.17" stroke="hsl(301.29999999999995, 100%, 34.7%)" stroke-width="1.5"></path><path d="M1291.22 562.17L1276.58 681.24" stroke="hsl(301.29999999999995, 100%, 34.7%)" stroke-width="1.5"></path><path d="M1291.22 562.17L1413.29 640.03" stroke="hsl(301.29999999999995, 100%, 34.7%)" stroke-width="1.5"></path><path d="M1291.22 562.17L1431.44 523.15" stroke="hsl(301.29999999999995, 100%, 34.7%)" stroke-width="1.5"></path><path d="M1276.58 681.24L1276.58 681.24" stroke="hsl(301.29999999999995, 100%, 34.7%)" stroke-width="1.5"></path><path d="M1276.58 681.24L1413.29 640.03" stroke="hsl(301.29999999999995, 100%, 34.7%)" stroke-width="1.5"></path><path d="M1443.47 -105.52L1443.47 -105.52" stroke="hsl(301.29999999999995, 100%, 34.7%)" stroke-width="1.5"></path><path d="M1443.47 -105.52L1542.97 -49.81" stroke="hsl(301.29999999999995, 100%, 34.7%)" stroke-width="1.5"></path><path d="M1443.47 -105.52L1395.74 99.27" stroke="hsl(301.29999999999995, 100%, 34.7%)" stroke-width="1.5"></path><path d="M1395.74 99.27L1395.74 99.27" stroke="hsl(301.29999999999995, 100%, 34.7%)" stroke-width="1.5"></path><path d="M1420.49 399.43L1420.49 399.43" stroke="hsl(301.29999999999995, 100%, 34.7%)" stroke-width="1.5"></path><path d="M1420.49 399.43L1431.44 523.15" stroke="hsl(301.29999999999995, 100%, 34.7%)" stroke-width="1.5"></path><path d="M1420.49 399.43L1552.96 505.21" stroke="hsl(301.29999999999995, 100%, 34.7%)" stroke-width="1.5"></path><path d="M1420.49 399.43L1296.55 252.16" stroke="hsl(301.29999999999995, 100%, 34.7%)" stroke-width="1.5"></path><path d="M1420.49 399.43L1401.45 196.96" stroke="hsl(301.29999999999995, 100%, 34.7%)" stroke-width="1.5"></path><path d="M1431.44 523.15L1431.44 523.15" stroke="hsl(301.29999999999995, 100%, 34.7%)" stroke-width="1.5"></path><path d="M1431.44 523.15L1413.29 640.03" stroke="hsl(301.29999999999995, 100%, 34.7%)" stroke-width="1.5"></path><path d="M1431.44 523.15L1552.96 505.21" stroke="hsl(301.29999999999995, 100%, 34.7%)" stroke-width="1.5"></path><path d="M1413.29 640.03L1413.29 640.03" stroke="hsl(301.29999999999995, 100%, 34.7%)" stroke-width="1.5"></path><path d="M1413.29 640.03L1583.06 658.61" stroke="hsl(301.29999999999995, 100%, 34.7%)" stroke-width="1.5"></path><path d="M1413.29 640.03L1552.96 505.21" stroke="hsl(301.29999999999995, 100%, 34.7%)" stroke-width="1.5"></path><path d="M1413.29 640.03L1420.49 399.43" stroke="hsl(301.29999999999995, 100%, 34.7%)" stroke-width="1.5"></path><path d="M1542.97 -49.81L1542.97 -49.81" stroke="hsl(301.29999999999995, 100%, 34.7%)" stroke-width="1.5"></path><path d="M1542.97 -49.81L1585.17 82.97" stroke="hsl(301.29999999999995, 100%, 34.7%)" stroke-width="1.5"></path><path d="M1542.97 -49.81L1395.74 99.27" stroke="hsl(301.29999999999995, 100%, 34.7%)" stroke-width="1.5"></path><path d="M1542.97 -49.81L1538.82 213.61" stroke="hsl(301.29999999999995, 100%, 34.7%)" stroke-width="1.5"></path><path d="M1542.97 -49.81L1285.82 63.79" stroke="hsl(301.29999999999995, 100%, 34.7%)" stroke-width="1.5"></path><path d="M1542.97 -49.81L1401.45 196.96" stroke="hsl(301.29999999999995, 100%, 34.7%)" stroke-width="1.5"></path><path d="M1585.17 82.97L1585.17 82.97" stroke="hsl(301.29999999999995, 100%, 34.7%)" stroke-width="1.5"></path><path d="M1585.17 82.97L1395.74 99.27" stroke="hsl(301.29999999999995, 100%, 34.7%)" stroke-width="1.5"></path><path d="M1585.17 82.97L1401.45 196.96" stroke="hsl(301.29999999999995, 100%, 34.7%)" stroke-width="1.5"></path><path d="M1585.17 82.97L1443.47 -105.52" stroke="hsl(301.29999999999995, 100%, 34.7%)" stroke-width="1.5"></path><path d="M1552.96 505.21L1552.96 505.21" stroke="hsl(301.29999999999995, 100%, 34.7%)" stroke-width="1.5"></path><path d="M1552.96 505.21L1583.06 658.61" stroke="hsl(301.29999999999995, 100%, 34.7%)" stroke-width="1.5"></path><path d="M1583.06 658.61L1583.06 658.61" stroke="hsl(301.29999999999995, 100%, 34.7%)" stroke-width="1.5"></path><path d="M1583.06 658.61L1431.44 523.15" stroke="hsl(301.29999999999995, 100%, 34.7%)" stroke-width="1.5"></path><circle r="25" cx="-46.96" cy="503.34" fill="url(#SvgjsRadialGradient1031)"></circle><circle r="25" cx="-90.04" cy="641.97" fill="url(#SvgjsRadialGradient1031)"></circle><circle r="25" cx="352.43" cy="518.97" fill="url(#SvgjsRadialGradient1031)"></circle><circle r="25" cx="550.6" cy="396.17" fill="url(#SvgjsRadialGradient1031)"></circle><circle r="25" cx="529.05" cy="547.03" fill="url(#SvgjsRadialGradient1031)"></circle><circle r="25" cx="810.21" cy="703.68" fill="url(#SvgjsRadialGradient1031)"></circle><circle r="25" cx="990.51" cy="232.34" fill="url(#SvgjsRadialGradient1031)"></circle><circle r="25" cx="976.16" cy="658.02" fill="url(#SvgjsRadialGradient1031)"></circle><circle r="25" cx="1285.82" cy="63.79" fill="url(#SvgjsRadialGradient1031)"></circle><circle r="25" cx="1296.55" cy="252.16" fill="url(#SvgjsRadialGradient1031)"></circle><circle r="25" cx="1401.45" cy="196.96" fill="url(#SvgjsRadialGradient1031)"></circle><circle r="25" cx="1538.82" cy="213.61" fill="url(#SvgjsRadialGradient1031)"></circle><circle r="25" cx="1561" cy="362.38" fill="url(#SvgjsRadialGradient1031)"></circle><circle r="5" cx="62.79" cy="536.93" fill="#c480c2"></circle><circle r="5" cx="206.84" cy="501.53" fill="#c480c2"></circle><circle r="5" cx="221.95" cy="687.7" fill="#c480c2"></circle><circle r="5" cx="339.56" cy="706.35" fill="#c480c2"></circle><circle r="5" cx="526.88" cy="659.95" fill="#c480c2"></circle><circle r="5" cx="702.63" cy="562.19" fill="#c480c2"></circle><circle r="5" cx="671.8" cy="669.46" fill="#c480c2"></circle><circle r="5" cx="822.99" cy="342.78" fill="#c480c2"></circle><circle r="5" cx="838.56" cy="529.95" fill="#c480c2"></circle><circle r="5" cx="989.08" cy="509.47" fill="#c480c2"></circle><circle r="5" cx="1130.73" cy="99.28" fill="#c480c2"></circle><circle r="5" cx="1120.57" cy="253.49" fill="#c480c2"></circle><circle r="5" cx="1147.24" cy="409.85" fill="#c480c2"></circle><circle r="5" cx="1112.61" cy="549.88" fill="#c480c2"></circle><circle r="5" cx="1159.83" cy="670.04" fill="#c480c2"></circle><circle r="5" cx="1257.32" cy="-87.27" fill="#c480c2"></circle><circle r="5" cx="1277.18" cy="337.99" fill="#c480c2"></circle><circle r="5" cx="1291.22" cy="562.17" fill="#c480c2"></circle><circle r="5" cx="1276.58" cy="681.24" fill="#c480c2"></circle><circle r="5" cx="1443.47" cy="-105.52" fill="#c480c2"></circle><circle r="5" cx="1395.74" cy="99.27" fill="#c480c2"></circle><circle r="5" cx="1420.49" cy="399.43" fill="#c480c2"></circle><circle r="5" cx="1431.44" cy="523.15" fill="#c480c2"></circle><circle r="5" cx="1413.29" cy="640.03" fill="#c480c2"></circle><circle r="5" cx="1542.97" cy="-49.81" fill="#c480c2"></circle><circle r="5" cx="1585.17" cy="82.97" fill="#c480c2"></circle><circle r="5" cx="1552.96" cy="505.21" fill="#c480c2"></circle><circle r="5" cx="1583.06" cy="658.61" fill="#c480c2"></circle></g><defs><mask id="SvgjsMask1030"><rect width="1440" height="560" fill="#ffffff"></rect></mask><radialGradient id="SvgjsRadialGradient1031"><stop stop-color="#ffffff" offset="0.1"></stop><stop stop-color="rgba(136, 0, 133, 1)" offset="0.2"></stop><stop stop-color="rgba(136, 0, 133, 0)" offset="1"></stop></radialGradient></defs></svg>